<?xml version="1.0" encoding="UTF-8" standalone="no"?>
<!DOCTYPE svg PUBLIC "-//W3C//DTD SVG 1.1//EN"
 "http://www.w3.org/Graphics/SVG/1.1/DTD/svg11.dtd">
<!-- Generated by graphviz version 2.43.0 (0)
 -->
<!-- Title: rsync&#45;backup Pages: 1 -->
<svg width="523pt" height="681pt"
 viewBox="0.00 0.00 522.50 681.00" xmlns="http://www.w3.org/2000/svg" xmlns:xlink="http://www.w3.org/1999/xlink">
<g id="graph0" class="graph" transform="scale(1 1) rotate(0) translate(4 677)">
<title>rsync&#45;backup</title>
<polygon fill="white" stroke="transparent" points="-4,4 -4,-677 518.5,-677 518.5,4 -4,4"/>
<g id="clust1" class="cluster">
<title>cluster:tools</title>
<polygon fill="none" stroke="black" points="8,-65 8,-665 416,-665 416,-65 8,-65"/>
<text text-anchor="middle" x="212" y="-649.8" font-family="Times,serif" font-size="14.00">tools/</text>
</g>
<!-- backup -->
<g id="node1" class="node">
<title>backup</title>
<g id="a_node1"><a xlink:href="../#backup" xlink:title="backup" target="_parent">
<polygon fill="none" stroke="black" points="400,-634 344,-634 344,-630 340,-630 340,-626 344,-626 344,-606 340,-606 340,-602 344,-602 344,-598 400,-598 400,-634"/>
<polyline fill="none" stroke="black" points="344,-630 348,-630 348,-626 344,-626 "/>
<polyline fill="none" stroke="black" points="344,-606 348,-606 348,-602 344,-602 "/>
<text text-anchor="middle" x="372" y="-612.3" font-family="Times,serif" font-size="14.00">backup</text>
</a>
</g>
</g>
<!-- backup&#45;prepare -->
<g id="node2" class="node">
<title>backup&#45;prepare</title>
<g id="a_node2"><a xlink:href="../#backup-prepare" xlink:title="backup&#45;prepare" target="_parent">
<polygon fill="none" stroke="black" points="407.5,-255 306.5,-255 306.5,-251 302.5,-251 302.5,-247 306.5,-247 306.5,-227 302.5,-227 302.5,-223 306.5,-223 306.5,-219 407.5,-219 407.5,-255"/>
<polyline fill="none" stroke="black" points="306.5,-251 310.5,-251 310.5,-247 306.5,-247 "/>
<polyline fill="none" stroke="black" points="306.5,-227 310.5,-227 310.5,-223 306.5,-223 "/>
<text text-anchor="middle" x="357" y="-233.3" font-family="Times,serif" font-size="14.00">backup&#45;prepare</text>
</a>
</g>
</g>
<!-- backup&#45;&gt;backup&#45;prepare -->
<g id="edge1" class="edge">
<title>backup&#45;&gt;backup&#45;prepare</title>
<path fill="none" stroke="black" d="M379.08,-597.8C389.31,-572.96 407,-530 407,-530 407,-530 407,-530 407,-309 407,-309 389.32,-283.89 374.98,-263.53"/>
<polygon fill="black" stroke="black" points="377.72,-261.35 369.1,-255.19 372,-265.38 377.72,-261.35"/>
<text text-anchor="middle" x="375.58" y="-586.6" font-family="Times,serif" font-size="14.00">1</text>
</g>
<!-- backup&#45;sources -->
<g id="node3" class="node">
<title>backup&#45;sources</title>
<g id="a_node3"><a xlink:href="../#backup-sources" xlink:title="backup&#45;sources" target="_parent">
<polygon fill="none" stroke="black" points="387.5,-547 286.5,-547 286.5,-543 282.5,-543 282.5,-539 286.5,-539 286.5,-519 282.5,-519 282.5,-515 286.5,-515 286.5,-511 387.5,-511 387.5,-547"/>
<polyline fill="none" stroke="black" points="286.5,-543 290.5,-543 290.5,-539 286.5,-539 "/>
<polyline fill="none" stroke="black" points="286.5,-519 290.5,-519 290.5,-515 286.5,-515 "/>
<text text-anchor="middle" x="337" y="-525.3" font-family="Times,serif" font-size="14.00">backup&#45;sources</text>
</a>
</g>
</g>
<!-- backup&#45;&gt;backup&#45;sources -->
<g id="edge2" class="edge">
<title>backup&#45;&gt;backup&#45;sources</title>
<path fill="none" stroke="black" d="M364.92,-597.8C360.03,-585.93 353.44,-569.93 347.89,-556.45"/>
<polygon fill="black" stroke="black" points="351.12,-555.09 344.07,-547.18 344.64,-557.75 351.12,-555.09"/>
<text text-anchor="middle" x="359.5" y="-568.8" font-family="Times,serif" font-size="14.00">2</text>
</g>
<!-- backup&#45;purge -->
<g id="node4" class="node">
<title>backup&#45;purge</title>
<g id="a_node4"><a xlink:href="../#backup-purge" xlink:title="backup&#45;purge" target="_parent">
<polygon fill="none" stroke="black" points="268,-547 176,-547 176,-543 172,-543 172,-539 176,-539 176,-519 172,-519 172,-515 176,-515 176,-511 268,-511 268,-547"/>
<polyline fill="none" stroke="black" points="176,-543 180,-543 180,-539 176,-539 "/>
<polyline fill="none" stroke="black" points="176,-519 180,-519 180,-515 176,-515 "/>
<text text-anchor="middle" x="222" y="-525.3" font-family="Times,serif" font-size="14.00">backup&#45;purge</text>
</a>
</g>
</g>
<!-- backup&#45;&gt;backup&#45;purge -->
<g id="edge3" class="edge">
<title>backup&#45;&gt;backup&#45;purge</title>
<path fill="none" stroke="black" d="M343.79,-599.01C320.4,-585.76 286.92,-566.79 260.98,-552.09"/>
<polygon fill="black" stroke="black" points="262.57,-548.97 252.15,-547.08 259.12,-555.06 262.57,-548.97"/>
<text text-anchor="middle" x="308.5" y="-568.8" font-family="Times,serif" font-size="14.00">3</text>
</g>
<!-- backup&#45;nice -->
<g id="node15" class="node">
<title>backup&#45;nice</title>
<g id="a_node15"><a xlink:href="../#backup-nice" xlink:title="backup&#45;nice" target="_parent">
<polygon fill="none" stroke="black" points="216.5,-182 133.5,-182 133.5,-178 129.5,-178 129.5,-174 133.5,-174 133.5,-154 129.5,-154 129.5,-150 133.5,-150 133.5,-146 216.5,-146 216.5,-182"/>
<polyline fill="none" stroke="black" points="133.5,-178 137.5,-178 137.5,-174 133.5,-174 "/>
<polyline fill="none" stroke="black" points="133.5,-154 137.5,-154 137.5,-150 133.5,-150 "/>
<text text-anchor="middle" x="175" y="-160.3" font-family="Times,serif" font-size="14.00">backup&#45;nice</text>
</a>
</g>
</g>
<!-- backup&#45;prepare&#45;&gt;backup&#45;nice -->
<g id="edge15" class="edge">
<title>backup&#45;prepare&#45;&gt;backup&#45;nice</title>
<path fill="none" stroke="black" d="M313.41,-218.99C287.16,-208.75 253.62,-195.67 226.12,-184.94"/>
<polygon fill="black" stroke="black" points="227.26,-181.63 216.67,-181.26 224.72,-188.15 227.26,-181.63"/>
</g>
<!-- backup&#45;create -->
<g id="node9" class="node">
<title>backup&#45;create</title>
<g id="a_node9"><a xlink:href="../#backup-create" xlink:title="backup&#45;create" target="_parent">
<polygon fill="none" stroke="black" points="363.5,-474 270.5,-474 270.5,-470 266.5,-470 266.5,-466 270.5,-466 270.5,-446 266.5,-446 266.5,-442 270.5,-442 270.5,-438 363.5,-438 363.5,-474"/>
<polyline fill="none" stroke="black" points="270.5,-470 274.5,-470 274.5,-466 270.5,-466 "/>
<polyline fill="none" stroke="black" points="270.5,-446 274.5,-446 274.5,-442 270.5,-442 "/>
<text text-anchor="middle" x="317" y="-452.3" font-family="Times,serif" font-size="14.00">backup&#45;create</text>
</a>
</g>
</g>
<!-- backup&#45;sources&#45;&gt;backup&#45;create -->
<g id="edge21" class="edge">
<title>backup&#45;sources&#45;&gt;backup&#45;create</title>
<path fill="none" stroke="black" d="M332.16,-510.81C329.87,-502.7 327.09,-492.84 324.54,-483.78"/>
<polygon fill="black" stroke="black" points="327.88,-482.71 321.8,-474.03 321.14,-484.6 327.88,-482.71"/>
</g>
<!-- backup&#45;clean&#45;tmp -->
<g id="node6" class="node">
<title>backup&#45;clean&#45;tmp</title>
<g id="a_node6"><a xlink:href="../#backup-clean-tmp" xlink:title="backup&#45;clean&#45;tmp" target="_parent">
<polygon fill="none" stroke="black" points="134.5,-255 19.5,-255 19.5,-251 15.5,-251 15.5,-247 19.5,-247 19.5,-227 15.5,-227 15.5,-223 19.5,-223 19.5,-219 134.5,-219 134.5,-255"/>
<polyline fill="none" stroke="black" points="19.5,-251 23.5,-251 23.5,-247 19.5,-247 "/>
<polyline fill="none" stroke="black" points="19.5,-227 23.5,-227 23.5,-223 19.5,-223 "/>
<text text-anchor="middle" x="77" y="-233.3" font-family="Times,serif" font-size="14.00">backup&#45;clean&#45;tmp</text>
</a>
</g>
</g>
<!-- backup&#45;purge&#45;&gt;backup&#45;clean&#45;tmp -->
<g id="edge16" class="edge">
<title>backup&#45;purge&#45;&gt;backup&#45;clean&#45;tmp</title>
<path fill="none" stroke="black" d="M203.52,-510.87C166.13,-476.21 85,-401 85,-401 85,-401 78,-328 78,-328 78,-328 76,-274 76,-274 76,-274 76,-273 76,-273 76,-273 76.09,-269.82 76.22,-265.37"/>
<polygon fill="black" stroke="black" points="79.72,-265.19 76.51,-255.09 72.73,-264.99 79.72,-265.19"/>
</g>
<!-- on_ac_power -->
<g id="node22" class="node">
<title>on_ac_power</title>
<polygon fill="none" stroke="black" points="514.5,-474 425.5,-474 425.5,-470 421.5,-470 421.5,-466 425.5,-466 425.5,-446 421.5,-446 421.5,-442 425.5,-442 425.5,-438 514.5,-438 514.5,-474"/>
<polyline fill="none" stroke="black" points="425.5,-470 429.5,-470 429.5,-466 425.5,-466 "/>
<polyline fill="none" stroke="black" points="425.5,-446 429.5,-446 429.5,-442 425.5,-442 "/>
<text text-anchor="middle" x="470" y="-452.3" font-family="Times,serif" font-size="14.00">on_ac_power</text>
</g>
<!-- backup&#45;purge&#45;&gt;on_ac_power -->
<g id="edge26" class="edge">
<title>backup&#45;purge&#45;&gt;on_ac_power</title>
<path fill="none" stroke="black" stroke-dasharray="5,2" d="M268.25,-513.96C274.05,-512.2 278,-511 278,-511 278,-511 381.92,-483.92 415.31,-474.96"/>
<polygon fill="black" stroke="black" points="416.64,-478.22 425.35,-472.18 414.78,-471.47 416.64,-478.22"/>
</g>
<!-- backup&#45;copy -->
<g id="node5" class="node">
<title>backup&#45;copy</title>
<g id="a_node5"><a xlink:href="../#backup-copy" xlink:title="backup&#45;copy" target="_parent">
<polygon fill="none" stroke="black" points="103.5,-474 16.5,-474 16.5,-470 12.5,-470 12.5,-466 16.5,-466 16.5,-446 12.5,-446 12.5,-442 16.5,-442 16.5,-438 103.5,-438 103.5,-474"/>
<polyline fill="none" stroke="black" points="16.5,-470 20.5,-470 20.5,-466 16.5,-466 "/>
<polyline fill="none" stroke="black" points="16.5,-446 20.5,-446 20.5,-442 16.5,-442 "/>
<text text-anchor="middle" x="60" y="-452.3" font-family="Times,serif" font-size="14.00">backup&#45;copy</text>
</a>
</g>
</g>
<!-- backup&#45;copy&#45;&gt;backup&#45;clean&#45;tmp -->
<g id="edge4" class="edge">
<title>backup&#45;copy&#45;&gt;backup&#45;clean&#45;tmp</title>
<path fill="none" stroke="black" d="M59.05,-437.91C58.17,-422.09 57,-401 57,-401 57,-401 57,-273 57,-273 57,-273 59.22,-269.11 62.18,-263.93"/>
<polygon fill="black" stroke="black" points="65.31,-265.51 67.23,-255.09 59.23,-262.04 65.31,-265.51"/>
</g>
<!-- backup&#45;copy&#45;rsync -->
<g id="node7" class="node">
<title>backup&#45;copy&#45;rsync</title>
<g id="a_node7"><a xlink:href="../#backup-copy-rsync" xlink:title="backup&#45;copy&#45;rsync" target="_parent">
<polygon fill="none" stroke="black" points="222.5,-401 101.5,-401 101.5,-397 97.5,-397 97.5,-393 101.5,-393 101.5,-373 97.5,-373 97.5,-369 101.5,-369 101.5,-365 222.5,-365 222.5,-401"/>
<polyline fill="none" stroke="black" points="101.5,-397 105.5,-397 105.5,-393 101.5,-393 "/>
<polyline fill="none" stroke="black" points="101.5,-373 105.5,-373 105.5,-369 101.5,-369 "/>
<text text-anchor="middle" x="162" y="-379.3" font-family="Times,serif" font-size="14.00">backup&#45;copy&#45;rsync</text>
</a>
</g>
</g>
<!-- backup&#45;copy&#45;&gt;backup&#45;copy&#45;rsync -->
<g id="edge5" class="edge">
<title>backup&#45;copy&#45;&gt;backup&#45;copy&#45;rsync</title>
<path fill="none" stroke="black" d="M84.43,-437.99C97.83,-428.67 114.63,-416.97 129.16,-406.86"/>
<polygon fill="black" stroke="black" points="131.21,-409.7 137.41,-401.11 127.21,-403.95 131.21,-409.7"/>
</g>
<!-- backup&#45;rsync -->
<g id="node8" class="node">
<title>backup&#45;rsync</title>
<g id="a_node8"><a xlink:href="../#backup-rsync" xlink:title="backup&#45;rsync" target="_parent">
<polygon fill="none" stroke="black" points="277,-328 187,-328 187,-324 183,-324 183,-320 187,-320 187,-300 183,-300 183,-296 187,-296 187,-292 277,-292 277,-328"/>
<polyline fill="none" stroke="black" points="187,-324 191,-324 191,-320 187,-320 "/>
<polyline fill="none" stroke="black" points="187,-300 191,-300 191,-296 187,-296 "/>
<text text-anchor="middle" x="232" y="-306.3" font-family="Times,serif" font-size="14.00">backup&#45;rsync</text>
</a>
</g>
</g>
<!-- backup&#45;copy&#45;rsync&#45;&gt;backup&#45;rsync -->
<g id="edge6" class="edge">
<title>backup&#45;copy&#45;rsync&#45;&gt;backup&#45;rsync</title>
<path fill="none" stroke="black" d="M178.95,-364.81C187.72,-355.92 198.57,-344.91 208.17,-335.17"/>
<polygon fill="black" stroke="black" points="210.68,-337.61 215.21,-328.03 205.7,-332.69 210.68,-337.61"/>
</g>
<!-- backup&#45;rsync&#45;&gt;backup&#45;prepare -->
<g id="edge20" class="edge">
<title>backup&#45;rsync&#45;&gt;backup&#45;prepare</title>
<path fill="none" stroke="black" stroke-dasharray="5,2" d="M261.94,-291.99C278.67,-282.49 299.72,-270.54 317.75,-260.29"/>
<polygon fill="black" stroke="black" points="319.9,-263.1 326.87,-255.11 316.45,-257.01 319.9,-263.1"/>
</g>
<!-- backup&#45;rsync&#45;&gt;backup&#45;clean&#45;tmp -->
<g id="edge17" class="edge">
<title>backup&#45;rsync&#45;&gt;backup&#45;clean&#45;tmp</title>
<path fill="none" stroke="black" stroke-dasharray="5,2" d="M192.94,-291.91C172.63,-283.03 152,-274 152,-274 152,-274 137.8,-267.19 121.76,-259.49"/>
<polygon fill="black" stroke="black" points="123.27,-256.33 112.74,-255.16 120.24,-262.64 123.27,-256.33"/>
</g>
<!-- backup&#45;make&#45;tag -->
<g id="node11" class="node">
<title>backup&#45;make&#45;tag</title>
<g id="a_node11"><a xlink:href="../#backup-make-tag" xlink:title="backup&#45;make&#45;tag" target="_parent">
<polygon fill="none" stroke="black" points="288,-255 176,-255 176,-251 172,-251 172,-247 176,-247 176,-227 172,-227 172,-223 176,-223 176,-219 288,-219 288,-255"/>
<polyline fill="none" stroke="black" points="176,-251 180,-251 180,-247 176,-247 "/>
<polyline fill="none" stroke="black" points="176,-227 180,-227 180,-223 176,-223 "/>
<text text-anchor="middle" x="232" y="-233.3" font-family="Times,serif" font-size="14.00">backup&#45;make&#45;tag</text>
</a>
</g>
</g>
<!-- backup&#45;rsync&#45;&gt;backup&#45;make&#45;tag -->
<g id="edge18" class="edge">
<title>backup&#45;rsync&#45;&gt;backup&#45;make&#45;tag</title>
<path fill="none" stroke="black" stroke-dasharray="5,2" d="M232,-291.81C232,-283.79 232,-274.05 232,-265.07"/>
<polygon fill="black" stroke="black" points="235.5,-265.03 232,-255.03 228.5,-265.03 235.5,-265.03"/>
</g>
<!-- backup&#45;rsync&#45;&gt;backup&#45;nice -->
<g id="edge19" class="edge">
<title>backup&#45;rsync&#45;&gt;backup&#45;nice</title>
<path fill="none" stroke="black" d="M211.43,-291.91C192.39,-276.09 167,-255 167,-255 167,-255 167,-219 167,-219 167,-219 168.98,-205.61 170.98,-192.16"/>
<polygon fill="black" stroke="black" points="174.47,-192.49 172.47,-182.09 167.54,-191.47 174.47,-192.49"/>
</g>
<!-- rsync -->
<g id="node23" class="node">
<title>rsync</title>
<polygon fill="none" stroke="black" points="480,-255 426,-255 426,-251 422,-251 422,-247 426,-247 426,-227 422,-227 422,-223 426,-223 426,-219 480,-219 480,-255"/>
<polyline fill="none" stroke="black" points="426,-251 430,-251 430,-247 426,-247 "/>
<polyline fill="none" stroke="black" points="426,-227 430,-227 430,-223 426,-223 "/>
<text text-anchor="middle" x="453" y="-233.3" font-family="Times,serif" font-size="14.00">rsync</text>
</g>
<!-- backup&#45;rsync&#45;&gt;rsync -->
<g id="edge27" class="edge">
<title>backup&#45;rsync&#45;&gt;rsync</title>
<path fill="none" stroke="black" d="M277.03,-296.07C323.09,-282.84 390.91,-263.36 416.13,-255.37"/>
<polygon fill="black" stroke="black" points="417.44,-258.62 425.75,-252.04 415.15,-252 417.44,-258.62"/>
</g>
<!-- backup&#45;create&#45;&gt;backup&#45;clean&#45;tmp -->
<g id="edge7" class="edge">
<title>backup&#45;create&#45;&gt;backup&#45;clean&#45;tmp</title>
<path fill="none" stroke="black" d="M270.31,-443.75C204.67,-427.92 93,-401 93,-401 93,-401 84.21,-311.48 79.66,-265.12"/>
<polygon fill="black" stroke="black" points="83.14,-264.75 78.68,-255.14 76.18,-265.43 83.14,-264.75"/>
</g>
<!-- backup&#45;create&#45;rsync -->
<g id="node10" class="node">
<title>backup&#45;create&#45;rsync</title>
<g id="a_node10"><a xlink:href="../#backup-create-rsync" xlink:title="backup&#45;create&#45;rsync" target="_parent">
<polygon fill="none" stroke="black" points="367.5,-401 240.5,-401 240.5,-397 236.5,-397 236.5,-393 240.5,-393 240.5,-373 236.5,-373 236.5,-369 240.5,-369 240.5,-365 367.5,-365 367.5,-401"/>
<polyline fill="none" stroke="black" points="240.5,-397 244.5,-397 244.5,-393 240.5,-393 "/>
<polyline fill="none" stroke="black" points="240.5,-373 244.5,-373 244.5,-369 240.5,-369 "/>
<text text-anchor="middle" x="304" y="-379.3" font-family="Times,serif" font-size="14.00">backup&#45;create&#45;rsync</text>
</a>
</g>
</g>
<!-- backup&#45;create&#45;&gt;backup&#45;create&#45;rsync -->
<g id="edge8" class="edge">
<title>backup&#45;create&#45;&gt;backup&#45;create&#45;rsync</title>
<path fill="none" stroke="black" d="M313.85,-437.81C312.38,-429.79 310.6,-420.05 308.96,-411.07"/>
<polygon fill="black" stroke="black" points="312.36,-410.23 307.12,-401.03 305.48,-411.5 312.36,-410.23"/>
</g>
<!-- backup&#45;create&#45;&gt;backup&#45;make&#45;tag -->
<g id="edge9" class="edge">
<title>backup&#45;create&#45;&gt;backup&#45;make&#45;tag</title>
<path fill="none" stroke="black" d="M335.98,-437.91C353.56,-422.09 377,-401 377,-401 377,-401 377,-365 377,-365 377,-365 301.22,-298.62 259.22,-261.84"/>
<polygon fill="black" stroke="black" points="261.38,-259.08 251.56,-255.13 256.77,-264.35 261.38,-259.08"/>
</g>
<!-- backup&#45;create&#45;rsync&#45;&gt;backup&#45;rsync -->
<g id="edge10" class="edge">
<title>backup&#45;create&#45;rsync&#45;&gt;backup&#45;rsync</title>
<path fill="none" stroke="black" d="M286.57,-364.81C277.55,-355.92 266.39,-344.91 256.51,-335.17"/>
<polygon fill="black" stroke="black" points="258.85,-332.56 249.27,-328.03 253.93,-337.54 258.85,-332.56"/>
</g>
<!-- backup&#45;du -->
<g id="node12" class="node">
<title>backup&#45;du</title>
<g id="a_node12"><a xlink:href="../#backup-du" xlink:title="backup&#45;du" target="_parent">
<polygon fill="none" stroke="black" points="326,-634 252,-634 252,-630 248,-630 248,-626 252,-626 252,-606 248,-606 248,-602 252,-602 252,-598 326,-598 326,-634"/>
<polyline fill="none" stroke="black" points="252,-630 256,-630 256,-626 252,-626 "/>
<polyline fill="none" stroke="black" points="252,-606 256,-606 256,-602 252,-602 "/>
<text text-anchor="middle" x="289" y="-612.3" font-family="Times,serif" font-size="14.00">backup&#45;du</text>
</a>
</g>
</g>
<!-- backup&#45;mirror -->
<g id="node13" class="node">
<title>backup&#45;mirror</title>
<g id="a_node13"><a xlink:href="../#backup-mirror" xlink:title="backup&#45;mirror" target="_parent">
<polygon fill="none" stroke="black" points="233.5,-634 136.5,-634 136.5,-630 132.5,-630 132.5,-626 136.5,-626 136.5,-606 132.5,-606 132.5,-602 136.5,-602 136.5,-598 233.5,-598 233.5,-634"/>
<polyline fill="none" stroke="black" points="136.5,-630 140.5,-630 140.5,-626 136.5,-626 "/>
<polyline fill="none" stroke="black" points="136.5,-606 140.5,-606 140.5,-602 136.5,-602 "/>
<text text-anchor="middle" x="185" y="-612.3" font-family="Times,serif" font-size="14.00">backup&#45;mirror</text>
</a>
</g>
</g>
<!-- backup&#45;mirror&#45;&gt;backup&#45;purge -->
<g id="edge12" class="edge">
<title>backup&#45;mirror&#45;&gt;backup&#45;purge</title>
<path fill="none" stroke="black" d="M192.49,-597.8C197.65,-585.93 204.62,-569.93 210.49,-556.45"/>
<polygon fill="black" stroke="black" points="213.74,-557.74 214.52,-547.18 207.32,-554.95 213.74,-557.74"/>
<text text-anchor="middle" x="208.5" y="-568.8" font-family="Times,serif" font-size="14.00">2</text>
</g>
<!-- backup&#45;mirror&#45;sources -->
<g id="node14" class="node">
<title>backup&#45;mirror&#45;sources</title>
<g id="a_node14"><a xlink:href="../#backup-mirror-sources" xlink:title="backup&#45;mirror&#45;sources" target="_parent">
<polygon fill="none" stroke="black" points="157.5,-547 16.5,-547 16.5,-543 12.5,-543 12.5,-539 16.5,-539 16.5,-519 12.5,-519 12.5,-515 16.5,-515 16.5,-511 157.5,-511 157.5,-547"/>
<polyline fill="none" stroke="black" points="16.5,-543 20.5,-543 20.5,-539 16.5,-539 "/>
<polyline fill="none" stroke="black" points="16.5,-519 20.5,-519 20.5,-515 16.5,-515 "/>
<text text-anchor="middle" x="87" y="-525.3" font-family="Times,serif" font-size="14.00">backup&#45;mirror&#45;sources</text>
</a>
</g>
</g>
<!-- backup&#45;mirror&#45;&gt;backup&#45;mirror&#45;sources -->
<g id="edge11" class="edge">
<title>backup&#45;mirror&#45;&gt;backup&#45;mirror&#45;sources</title>
<path fill="none" stroke="black" d="M165.17,-597.8C150.56,-585.13 130.5,-567.73 114.37,-553.74"/>
<polygon fill="black" stroke="black" points="116.65,-551.08 106.8,-547.18 112.06,-556.37 116.65,-551.08"/>
<text text-anchor="middle" x="144.5" y="-568.8" font-family="Times,serif" font-size="14.00">1</text>
</g>
<!-- backup&#45;mirror&#45;sources&#45;&gt;backup&#45;copy -->
<g id="edge13" class="edge">
<title>backup&#45;mirror&#45;sources&#45;&gt;backup&#45;copy</title>
<path fill="none" stroke="black" d="M80.46,-510.81C77.35,-502.62 73.55,-492.62 70.07,-483.48"/>
<polygon fill="black" stroke="black" points="73.3,-482.13 66.48,-474.03 66.76,-484.62 73.3,-482.13"/>
</g>
<!-- backup&#45;help -->
<g id="node16" class="node">
<title>backup&#45;help</title>
<g id="a_node16"><a xlink:href="../#backup-help" xlink:title="backup&#45;help" target="_parent">
<polygon fill="none" stroke="black" points="124,-109 40,-109 40,-105 36,-105 36,-101 40,-101 40,-81 36,-81 36,-77 40,-77 40,-73 124,-73 124,-109"/>
<polyline fill="none" stroke="black" points="40,-105 44,-105 44,-101 40,-101 "/>
<polyline fill="none" stroke="black" points="40,-81 44,-81 44,-77 40,-77 "/>
<text text-anchor="middle" x="82" y="-87.3" font-family="Times,serif" font-size="14.00">backup&#45;help</text>
</a>
</g>
</g>
<!-- backup&#45;nice&#45;&gt;backup&#45;help -->
<!-- ionice -->
<g id="node19" class="node">
<title>ionice</title>
<polygon fill="none" stroke="black" points="185,-36 131,-36 131,-32 127,-32 127,-28 131,-28 131,-8 127,-8 127,-4 131,-4 131,0 185,0 185,-36"/>
<polyline fill="none" stroke="black" points="131,-32 135,-32 135,-28 131,-28 "/>
<polyline fill="none" stroke="black" points="131,-8 135,-8 135,-4 131,-4 "/>
<text text-anchor="middle" x="158" y="-14.3" font-family="Times,serif" font-size="14.00">ionice</text>
</g>
<!-- backup&#45;nice&#45;&gt;ionice -->
<g id="edge23" class="edge">
<title>backup&#45;nice&#45;&gt;ionice</title>
<path fill="none" stroke="black" stroke-dasharray="5,2" d="M172.98,-145.92C170.07,-121.23 164.65,-75.35 161.19,-46.04"/>
<polygon fill="black" stroke="black" points="164.66,-45.58 160.01,-36.06 157.71,-46.4 164.66,-45.58"/>
</g>
<!-- nice -->
<g id="node20" class="node">
<title>nice</title>
<polygon fill="none" stroke="black" points="257,-36 203,-36 203,-32 199,-32 199,-28 203,-28 203,-8 199,-8 199,-4 203,-4 203,0 257,0 257,-36"/>
<polyline fill="none" stroke="black" points="203,-32 207,-32 207,-28 203,-28 "/>
<polyline fill="none" stroke="black" points="203,-8 207,-8 207,-4 203,-4 "/>
<text text-anchor="middle" x="230" y="-14.3" font-family="Times,serif" font-size="14.00">nice</text>
</g>
<!-- backup&#45;nice&#45;&gt;nice -->
<g id="edge24" class="edge">
<title>backup&#45;nice&#45;&gt;nice</title>
<path fill="none" stroke="black" stroke-dasharray="5,2" d="M181.53,-145.92C190.99,-121.12 208.63,-74.95 219.82,-45.66"/>
<polygon fill="black" stroke="black" points="223.18,-46.65 223.48,-36.06 216.65,-44.15 223.18,-46.65"/>
</g>
<!-- nocache -->
<g id="node21" class="node">
<title>nocache</title>
<polygon fill="none" stroke="black" points="336.5,-36 275.5,-36 275.5,-32 271.5,-32 271.5,-28 275.5,-28 275.5,-8 271.5,-8 271.5,-4 275.5,-4 275.5,0 336.5,0 336.5,-36"/>
<polyline fill="none" stroke="black" points="275.5,-32 279.5,-32 279.5,-28 275.5,-28 "/>
<polyline fill="none" stroke="black" points="275.5,-8 279.5,-8 279.5,-4 275.5,-4 "/>
<text text-anchor="middle" x="306" y="-14.3" font-family="Times,serif" font-size="14.00">nocache</text>
</g>
<!-- backup&#45;nice&#45;&gt;nocache -->
<g id="edge25" class="edge">
<title>backup&#45;nice&#45;&gt;nocache</title>
<path fill="none" stroke="black" stroke-dasharray="5,2" d="M190.54,-145.92C213.59,-120.58 256.95,-72.92 283.47,-43.76"/>
<polygon fill="black" stroke="black" points="286.34,-45.81 290.48,-36.06 281.16,-41.1 286.34,-45.81"/>
</g>
<!-- help2man -->
<g id="node18" class="node">
<title>help2man</title>
<polygon fill="none" stroke="black" points="112.5,-36 41.5,-36 41.5,-32 37.5,-32 37.5,-28 41.5,-28 41.5,-8 37.5,-8 37.5,-4 41.5,-4 41.5,0 112.5,0 112.5,-36"/>
<polyline fill="none" stroke="black" points="41.5,-32 45.5,-32 45.5,-28 41.5,-28 "/>
<polyline fill="none" stroke="black" points="41.5,-8 45.5,-8 45.5,-4 41.5,-4 "/>
<text text-anchor="middle" x="77" y="-14.3" font-family="Times,serif" font-size="14.00">help2man</text>
</g>
<!-- backup&#45;help&#45;&gt;help2man -->
<g id="edge22" class="edge">
<title>backup&#45;help&#45;&gt;help2man</title>
<path fill="none" stroke="black" stroke-dasharray="5,2" d="M80.79,-72.81C80.22,-64.79 79.54,-55.05 78.91,-46.07"/>
<polygon fill="black" stroke="black" points="82.39,-45.76 78.2,-36.03 75.41,-46.25 82.39,-45.76"/>
</g>
<!-- backup&#45;nologin -->
<g id="node17" class="node">
<title>backup&#45;nologin</title>
<g id="a_node17"><a xlink:href="../#backup-nologin" xlink:title="backup&#45;nologin" target="_parent">
<polygon fill="none" stroke="black" points="118,-634 16,-634 16,-630 12,-630 12,-626 16,-626 16,-606 12,-606 12,-602 16,-602 16,-598 118,-598 118,-634"/>
<polyline fill="none" stroke="black" points="16,-630 20,-630 20,-626 16,-626 "/>
<polyline fill="none" stroke="black" points="16,-606 20,-606 20,-602 16,-602 "/>
<text text-anchor="middle" x="67" y="-612.3" font-family="Times,serif" font-size="14.00">backup&#45;nologin</text>
</a>
</g>
</g>
<!-- ssh -->
<g id="node24" class="node">
<title>ssh</title>
<polygon fill="none" stroke="black" points="480,-182 426,-182 426,-178 422,-178 422,-174 426,-174 426,-154 422,-154 422,-150 426,-150 426,-146 480,-146 480,-182"/>
<polyline fill="none" stroke="black" points="426,-178 430,-178 430,-174 426,-174 "/>
<polyline fill="none" stroke="black" points="426,-154 430,-154 430,-150 426,-150 "/>
<text text-anchor="middle" x="453" y="-160.3" font-family="Times,serif" font-size="14.00">ssh</text>
</g>
<!-- rsync&#45;&gt;ssh -->
<g id="edge28" class="edge">
<title>rsync&#45;&gt;ssh</title>
<path fill="none" stroke="black" stroke-dasharray="5,2" d="M453,-218.81C453,-210.79 453,-201.05 453,-192.07"/>
<polygon fill="black" stroke="black" points="456.5,-192.03 453,-182.03 449.5,-192.03 456.5,-192.03"/>
</g>
</g>
</svg>
