<?xml version="1.0" encoding="UTF-8" standalone="no"?>
<!DOCTYPE svg PUBLIC "-//W3C//DTD SVG 1.1//EN"
 "http://www.w3.org/Graphics/SVG/1.1/DTD/svg11.dtd">
<!-- Generated by graphviz version 2.43.0 (0)
 -->
<!-- Title: rsync&#45;backup Pages: 1 -->
<svg width="590pt" height="683pt"
 viewBox="0.00 0.00 590.00 683.00" xmlns="http://www.w3.org/2000/svg" xmlns:xlink="http://www.w3.org/1999/xlink">
<g id="graph0" class="graph" transform="scale(1 1) rotate(0) translate(4 679)">
<title>rsync&#45;backup</title>
<polygon fill="white" stroke="transparent" points="-4,4 -4,-679 586,-679 586,4 -4,4"/>
<g id="clust1" class="cluster">
<title>cluster:tools</title>
<polygon fill="none" stroke="black" points="8,-65 8,-667 416,-667 416,-65 8,-65"/>
<text text-anchor="middle" x="212" y="-651.8" font-family="Times,serif" font-size="14.00">tools/</text>
</g>
<!-- backup -->
<g id="node1" class="node">
<title>backup</title>
<g id="a_node1"><a xlink:href="../#backup" xlink:title="backup" target="_parent">
<polygon fill="none" stroke="black" points="400,-636 344,-636 344,-632 340,-632 340,-628 344,-628 344,-608 340,-608 340,-604 344,-604 344,-600 400,-600 400,-636"/>
<polyline fill="none" stroke="black" points="344,-632 348,-632 348,-628 344,-628 "/>
<polyline fill="none" stroke="black" points="344,-608 348,-608 348,-604 344,-604 "/>
<text text-anchor="middle" x="372" y="-614.3" font-family="Times,serif" font-size="14.00">backup</text>
</a>
</g>
</g>
<!-- backup&#45;prepare -->
<g id="node2" class="node">
<title>backup&#45;prepare</title>
<g id="a_node2"><a xlink:href="../#backup-prepare" xlink:title="backup&#45;prepare" target="_parent">
<polygon fill="none" stroke="black" points="407.5,-256 306.5,-256 306.5,-252 302.5,-252 302.5,-248 306.5,-248 306.5,-228 302.5,-228 302.5,-224 306.5,-224 306.5,-220 407.5,-220 407.5,-256"/>
<polyline fill="none" stroke="black" points="306.5,-252 310.5,-252 310.5,-248 306.5,-248 "/>
<polyline fill="none" stroke="black" points="306.5,-228 310.5,-228 310.5,-224 306.5,-224 "/>
<text text-anchor="middle" x="357" y="-234.3" font-family="Times,serif" font-size="14.00">backup&#45;prepare</text>
</a>
</g>
</g>
<!-- backup&#45;&gt;backup&#45;prepare -->
<g id="edge1" class="edge">
<title>backup&#45;&gt;backup&#45;prepare</title>
<path fill="none" stroke="black" d="M379.08,-599.8C389.31,-574.96 407,-532 407,-532 407,-532 407,-532 407,-311 407,-311 389.11,-285.24 374.73,-264.54"/>
<polygon fill="black" stroke="black" points="377.43,-262.28 368.85,-256.06 371.68,-266.27 377.43,-262.28"/>
<text text-anchor="middle" x="375.58" y="-588.6" font-family="Times,serif" font-size="14.00">1</text>
</g>
<!-- backup&#45;sources -->
<g id="node3" class="node">
<title>backup&#45;sources</title>
<g id="a_node3"><a xlink:href="../#backup-sources" xlink:title="backup&#45;sources" target="_parent">
<polygon fill="none" stroke="black" points="387.5,-549 286.5,-549 286.5,-545 282.5,-545 282.5,-541 286.5,-541 286.5,-521 282.5,-521 282.5,-517 286.5,-517 286.5,-513 387.5,-513 387.5,-549"/>
<polyline fill="none" stroke="black" points="286.5,-545 290.5,-545 290.5,-541 286.5,-541 "/>
<polyline fill="none" stroke="black" points="286.5,-521 290.5,-521 290.5,-517 286.5,-517 "/>
<text text-anchor="middle" x="337" y="-527.3" font-family="Times,serif" font-size="14.00">backup&#45;sources</text>
</a>
</g>
</g>
<!-- backup&#45;&gt;backup&#45;sources -->
<g id="edge2" class="edge">
<title>backup&#45;&gt;backup&#45;sources</title>
<path fill="none" stroke="black" d="M364.92,-599.8C360.03,-587.93 353.44,-571.93 347.89,-558.45"/>
<polygon fill="black" stroke="black" points="351.12,-557.09 344.07,-549.18 344.64,-559.75 351.12,-557.09"/>
<text text-anchor="middle" x="359.5" y="-570.8" font-family="Times,serif" font-size="14.00">2</text>
</g>
<!-- backup&#45;purge -->
<g id="node4" class="node">
<title>backup&#45;purge</title>
<g id="a_node4"><a xlink:href="../#backup-purge" xlink:title="backup&#45;purge" target="_parent">
<polygon fill="none" stroke="black" points="268,-549 176,-549 176,-545 172,-545 172,-541 176,-541 176,-521 172,-521 172,-517 176,-517 176,-513 268,-513 268,-549"/>
<polyline fill="none" stroke="black" points="176,-545 180,-545 180,-541 176,-541 "/>
<polyline fill="none" stroke="black" points="176,-521 180,-521 180,-517 176,-517 "/>
<text text-anchor="middle" x="222" y="-527.3" font-family="Times,serif" font-size="14.00">backup&#45;purge</text>
</a>
</g>
</g>
<!-- backup&#45;&gt;backup&#45;purge -->
<g id="edge3" class="edge">
<title>backup&#45;&gt;backup&#45;purge</title>
<path fill="none" stroke="black" d="M343.79,-601.01C320.4,-587.76 286.92,-568.79 260.98,-554.09"/>
<polygon fill="black" stroke="black" points="262.57,-550.97 252.15,-549.08 259.12,-557.06 262.57,-550.97"/>
<text text-anchor="middle" x="308.5" y="-570.8" font-family="Times,serif" font-size="14.00">3</text>
</g>
<!-- backup&#45;nice -->
<g id="node15" class="node">
<title>backup&#45;nice</title>
<g id="a_node15"><a xlink:href="../#backup-nice" xlink:title="backup&#45;nice" target="_parent">
<polygon fill="none" stroke="black" points="220.5,-182 137.5,-182 137.5,-178 133.5,-178 133.5,-174 137.5,-174 137.5,-154 133.5,-154 133.5,-150 137.5,-150 137.5,-146 220.5,-146 220.5,-182"/>
<polyline fill="none" stroke="black" points="137.5,-178 141.5,-178 141.5,-174 137.5,-174 "/>
<polyline fill="none" stroke="black" points="137.5,-154 141.5,-154 141.5,-150 137.5,-150 "/>
<text text-anchor="middle" x="179" y="-160.3" font-family="Times,serif" font-size="14.00">backup&#45;nice</text>
</a>
</g>
</g>
<!-- backup&#45;prepare&#45;&gt;backup&#45;nice -->
<g id="edge15" class="edge">
<title>backup&#45;prepare&#45;&gt;backup&#45;nice</title>
<path fill="none" stroke="black" d="M314.82,-219.94C289.45,-209.68 257,-196.55 230.18,-185.7"/>
<polygon fill="black" stroke="black" points="231.16,-182.32 220.57,-181.82 228.53,-188.81 231.16,-182.32"/>
</g>
<!-- backup&#45;create -->
<g id="node9" class="node">
<title>backup&#45;create</title>
<g id="a_node9"><a xlink:href="../#backup-create" xlink:title="backup&#45;create" target="_parent">
<polygon fill="none" stroke="black" points="363.5,-476 270.5,-476 270.5,-472 266.5,-472 266.5,-468 270.5,-468 270.5,-448 266.5,-448 266.5,-444 270.5,-444 270.5,-440 363.5,-440 363.5,-476"/>
<polyline fill="none" stroke="black" points="270.5,-472 274.5,-472 274.5,-468 270.5,-468 "/>
<polyline fill="none" stroke="black" points="270.5,-448 274.5,-448 274.5,-444 270.5,-444 "/>
<text text-anchor="middle" x="317" y="-454.3" font-family="Times,serif" font-size="14.00">backup&#45;create</text>
</a>
</g>
</g>
<!-- backup&#45;sources&#45;&gt;backup&#45;create -->
<g id="edge21" class="edge">
<title>backup&#45;sources&#45;&gt;backup&#45;create</title>
<path fill="none" stroke="black" d="M332.16,-512.81C329.87,-504.7 327.09,-494.84 324.54,-485.78"/>
<polygon fill="black" stroke="black" points="327.88,-484.71 321.8,-476.03 321.14,-486.6 327.88,-484.71"/>
</g>
<!-- backup&#45;clean&#45;tmp -->
<g id="node6" class="node">
<title>backup&#45;clean&#45;tmp</title>
<g id="a_node6"><a xlink:href="../#backup-clean-tmp" xlink:title="backup&#45;clean&#45;tmp" target="_parent">
<polygon fill="none" stroke="black" points="134.5,-256 19.5,-256 19.5,-252 15.5,-252 15.5,-248 19.5,-248 19.5,-228 15.5,-228 15.5,-224 19.5,-224 19.5,-220 134.5,-220 134.5,-256"/>
<polyline fill="none" stroke="black" points="19.5,-252 23.5,-252 23.5,-248 19.5,-248 "/>
<polyline fill="none" stroke="black" points="19.5,-228 23.5,-228 23.5,-224 19.5,-224 "/>
<text text-anchor="middle" x="77" y="-234.3" font-family="Times,serif" font-size="14.00">backup&#45;clean&#45;tmp</text>
</a>
</g>
</g>
<!-- backup&#45;purge&#45;&gt;backup&#45;clean&#45;tmp -->
<g id="edge16" class="edge">
<title>backup&#45;purge&#45;&gt;backup&#45;clean&#45;tmp</title>
<path fill="none" stroke="black" d="M203.52,-512.87C166.13,-478.21 85,-403 85,-403 85,-403 78,-330 78,-330 78,-330 76,-276 76,-276 76,-276 76,-275 76,-275 76,-275 76.1,-271.26 76.24,-266.19"/>
<polygon fill="black" stroke="black" points="79.74,-266.25 76.52,-256.16 72.75,-266.06 79.74,-266.25"/>
</g>
<!-- on_ac_power -->
<g id="node22" class="node">
<title>on_ac_power</title>
<polygon fill="none" stroke="black" points="514.5,-476 425.5,-476 425.5,-472 421.5,-472 421.5,-468 425.5,-468 425.5,-448 421.5,-448 421.5,-444 425.5,-444 425.5,-440 514.5,-440 514.5,-476"/>
<polyline fill="none" stroke="black" points="425.5,-472 429.5,-472 429.5,-468 425.5,-468 "/>
<polyline fill="none" stroke="black" points="425.5,-448 429.5,-448 429.5,-444 425.5,-444 "/>
<text text-anchor="middle" x="470" y="-454.3" font-family="Times,serif" font-size="14.00">on_ac_power</text>
</g>
<!-- backup&#45;purge&#45;&gt;on_ac_power -->
<g id="edge26" class="edge">
<title>backup&#45;purge&#45;&gt;on_ac_power</title>
<path fill="none" stroke="black" stroke-dasharray="5,2" d="M268.25,-515.96C274.05,-514.2 278,-513 278,-513 278,-513 381.92,-485.92 415.31,-476.96"/>
<polygon fill="black" stroke="black" points="416.64,-480.22 425.35,-474.18 414.78,-473.47 416.64,-480.22"/>
</g>
<!-- backup&#45;copy -->
<g id="node5" class="node">
<title>backup&#45;copy</title>
<g id="a_node5"><a xlink:href="../#backup-copy" xlink:title="backup&#45;copy" target="_parent">
<polygon fill="none" stroke="black" points="103.5,-476 16.5,-476 16.5,-472 12.5,-472 12.5,-468 16.5,-468 16.5,-448 12.5,-448 12.5,-444 16.5,-444 16.5,-440 103.5,-440 103.5,-476"/>
<polyline fill="none" stroke="black" points="16.5,-472 20.5,-472 20.5,-468 16.5,-468 "/>
<polyline fill="none" stroke="black" points="16.5,-448 20.5,-448 20.5,-444 16.5,-444 "/>
<text text-anchor="middle" x="60" y="-454.3" font-family="Times,serif" font-size="14.00">backup&#45;copy</text>
</a>
</g>
</g>
<!-- backup&#45;copy&#45;&gt;backup&#45;clean&#45;tmp -->
<g id="edge4" class="edge">
<title>backup&#45;copy&#45;&gt;backup&#45;clean&#45;tmp</title>
<path fill="none" stroke="black" d="M59.05,-439.91C58.17,-424.09 57,-403 57,-403 57,-403 57,-275 57,-275 57,-275 59.4,-270.68 62.54,-265.03"/>
<polygon fill="black" stroke="black" points="65.67,-266.6 67.47,-256.16 59.55,-263.2 65.67,-266.6"/>
</g>
<!-- backup&#45;copy&#45;rsync -->
<g id="node7" class="node">
<title>backup&#45;copy&#45;rsync</title>
<g id="a_node7"><a xlink:href="../#backup-copy-rsync" xlink:title="backup&#45;copy&#45;rsync" target="_parent">
<polygon fill="none" stroke="black" points="222.5,-403 101.5,-403 101.5,-399 97.5,-399 97.5,-395 101.5,-395 101.5,-375 97.5,-375 97.5,-371 101.5,-371 101.5,-367 222.5,-367 222.5,-403"/>
<polyline fill="none" stroke="black" points="101.5,-399 105.5,-399 105.5,-395 101.5,-395 "/>
<polyline fill="none" stroke="black" points="101.5,-375 105.5,-375 105.5,-371 101.5,-371 "/>
<text text-anchor="middle" x="162" y="-381.3" font-family="Times,serif" font-size="14.00">backup&#45;copy&#45;rsync</text>
</a>
</g>
</g>
<!-- backup&#45;copy&#45;&gt;backup&#45;copy&#45;rsync -->
<g id="edge5" class="edge">
<title>backup&#45;copy&#45;&gt;backup&#45;copy&#45;rsync</title>
<path fill="none" stroke="black" d="M84.43,-439.99C97.83,-430.67 114.63,-418.97 129.16,-408.86"/>
<polygon fill="black" stroke="black" points="131.21,-411.7 137.41,-403.11 127.21,-405.95 131.21,-411.7"/>
</g>
<!-- backup&#45;rsync -->
<g id="node8" class="node">
<title>backup&#45;rsync</title>
<g id="a_node8"><a xlink:href="../#backup-rsync" xlink:title="backup&#45;rsync" target="_parent">
<polygon fill="none" stroke="black" points="306,-330 216,-330 216,-326 212,-326 212,-322 216,-322 216,-302 212,-302 212,-298 216,-298 216,-294 306,-294 306,-330"/>
<polyline fill="none" stroke="black" points="216,-326 220,-326 220,-322 216,-322 "/>
<polyline fill="none" stroke="black" points="216,-302 220,-302 220,-298 216,-298 "/>
<text text-anchor="middle" x="261" y="-308.3" font-family="Times,serif" font-size="14.00">backup&#45;rsync</text>
</a>
</g>
</g>
<!-- backup&#45;copy&#45;rsync&#45;&gt;backup&#45;rsync -->
<g id="edge6" class="edge">
<title>backup&#45;copy&#45;rsync&#45;&gt;backup&#45;rsync</title>
<path fill="none" stroke="black" d="M185.71,-366.99C198.6,-357.75 214.72,-346.19 228.73,-336.14"/>
<polygon fill="black" stroke="black" points="231.05,-338.79 237.14,-330.11 226.97,-333.1 231.05,-338.79"/>
</g>
<!-- backup&#45;rsync&#45;&gt;backup&#45;prepare -->
<g id="edge20" class="edge">
<title>backup&#45;rsync&#45;&gt;backup&#45;prepare</title>
<path fill="none" stroke="black" stroke-dasharray="5,2" d="M283.75,-293.94C296.33,-284.5 312.15,-272.64 325.86,-262.35"/>
<polygon fill="black" stroke="black" points="328.18,-264.99 334.08,-256.19 323.98,-259.39 328.18,-264.99"/>
</g>
<!-- backup&#45;rsync&#45;&gt;backup&#45;clean&#45;tmp -->
<g id="edge17" class="edge">
<title>backup&#45;rsync&#45;&gt;backup&#45;clean&#45;tmp</title>
<path fill="none" stroke="black" stroke-dasharray="5,2" d="M215.72,-296.46C185.77,-286.84 152,-276 152,-276 152,-276 137.37,-268.78 121.03,-260.72"/>
<polygon fill="black" stroke="black" points="122.38,-257.49 111.87,-256.2 119.28,-263.76 122.38,-257.49"/>
</g>
<!-- backup&#45;make&#45;tag -->
<g id="node11" class="node">
<title>backup&#45;make&#45;tag</title>
<g id="a_node11"><a xlink:href="../#backup-make-tag" xlink:title="backup&#45;make&#45;tag" target="_parent">
<polygon fill="none" stroke="black" points="288,-256 176,-256 176,-252 172,-252 172,-248 176,-248 176,-228 172,-228 172,-224 176,-224 176,-220 288,-220 288,-256"/>
<polyline fill="none" stroke="black" points="176,-252 180,-252 180,-248 176,-248 "/>
<polyline fill="none" stroke="black" points="176,-228 180,-228 180,-224 176,-224 "/>
<text text-anchor="middle" x="232" y="-234.3" font-family="Times,serif" font-size="14.00">backup&#45;make&#45;tag</text>
</a>
</g>
</g>
<!-- backup&#45;rsync&#45;&gt;backup&#45;make&#45;tag -->
<g id="edge18" class="edge">
<title>backup&#45;rsync&#45;&gt;backup&#45;make&#45;tag</title>
<path fill="none" stroke="black" stroke-dasharray="5,2" d="M254.13,-293.94C250.75,-285.54 246.59,-275.23 242.8,-265.81"/>
<polygon fill="black" stroke="black" points="246.01,-264.41 239.02,-256.44 239.51,-267.02 246.01,-264.41"/>
</g>
<!-- backup&#45;rsync&#45;&gt;backup&#45;nice -->
<g id="edge19" class="edge">
<title>backup&#45;rsync&#45;&gt;backup&#45;nice</title>
<path fill="none" stroke="black" d="M231.26,-293.91C203.72,-278.09 167,-257 167,-257 167,-257 167,-219 167,-219 167,-219 169.98,-205.61 172.96,-192.16"/>
<polygon fill="black" stroke="black" points="176.45,-192.61 175.2,-182.09 169.62,-191.09 176.45,-192.61"/>
</g>
<!-- rsync -->
<g id="node23" class="node">
<title>rsync</title>
<polygon fill="none" stroke="black" points="480,-256 426,-256 426,-252 422,-252 422,-248 426,-248 426,-228 422,-228 422,-224 426,-224 426,-220 480,-220 480,-256"/>
<polyline fill="none" stroke="black" points="426,-252 430,-252 430,-248 426,-248 "/>
<polyline fill="none" stroke="black" points="426,-228 430,-228 430,-224 426,-224 "/>
<text text-anchor="middle" x="453" y="-234.3" font-family="Times,serif" font-size="14.00">rsync</text>
</g>
<!-- backup&#45;rsync&#45;&gt;rsync -->
<g id="edge27" class="edge">
<title>backup&#45;rsync&#45;&gt;rsync</title>
<path fill="none" stroke="black" d="M306.14,-295.67C344.15,-282.76 395.13,-265.44 416.3,-257.63"/>
<polygon fill="black" stroke="black" points="417.76,-260.82 425.75,-253.86 415.16,-254.32 417.76,-260.82"/>
</g>
<!-- jdupes /\nduperemove -->
<g id="node24" class="node">
<title>jdupes /\nduperemove</title>
<polygon fill="none" stroke="black" points="582,-257 498,-257 498,-253 494,-253 494,-249 498,-249 498,-227 494,-227 494,-223 498,-223 498,-219 582,-219 582,-257"/>
<polyline fill="none" stroke="black" points="498,-253 502,-253 502,-249 498,-249 "/>
<polyline fill="none" stroke="black" points="498,-227 502,-227 502,-223 498,-223 "/>
<text text-anchor="middle" x="540" y="-241.8" font-family="Times,serif" font-size="14.00">jdupes /</text>
<text text-anchor="middle" x="540" y="-226.8" font-family="Times,serif" font-size="14.00">duperemove</text>
</g>
<!-- backup&#45;rsync&#45;&gt;jdupes /\nduperemove -->
<g id="edge28" class="edge">
<title>backup&#45;rsync&#45;&gt;jdupes /\nduperemove</title>
<path fill="none" stroke="black" stroke-dasharray="5,2" d="M306.05,-300.33C363.15,-286.81 457.22,-264.53 488.19,-256.54"/>
<polygon fill="black" stroke="black" points="489.17,-259.9 497.88,-253.86 487.31,-253.15 489.17,-259.9"/>
</g>
<!-- backup&#45;create&#45;&gt;backup&#45;clean&#45;tmp -->
<g id="edge7" class="edge">
<title>backup&#45;create&#45;&gt;backup&#45;clean&#45;tmp</title>
<path fill="none" stroke="black" d="M270.31,-445.75C204.67,-429.92 93,-403 93,-403 93,-403 84.21,-312.93 79.66,-266.29"/>
<polygon fill="black" stroke="black" points="83.14,-265.85 78.68,-256.24 76.17,-266.53 83.14,-265.85"/>
</g>
<!-- backup&#45;create&#45;rsync -->
<g id="node10" class="node">
<title>backup&#45;create&#45;rsync</title>
<g id="a_node10"><a xlink:href="../#backup-create-rsync" xlink:title="backup&#45;create&#45;rsync" target="_parent">
<polygon fill="none" stroke="black" points="367.5,-403 240.5,-403 240.5,-399 236.5,-399 236.5,-395 240.5,-395 240.5,-375 236.5,-375 236.5,-371 240.5,-371 240.5,-367 367.5,-367 367.5,-403"/>
<polyline fill="none" stroke="black" points="240.5,-399 244.5,-399 244.5,-395 240.5,-395 "/>
<polyline fill="none" stroke="black" points="240.5,-375 244.5,-375 244.5,-371 240.5,-371 "/>
<text text-anchor="middle" x="304" y="-381.3" font-family="Times,serif" font-size="14.00">backup&#45;create&#45;rsync</text>
</a>
</g>
</g>
<!-- backup&#45;create&#45;&gt;backup&#45;create&#45;rsync -->
<g id="edge8" class="edge">
<title>backup&#45;create&#45;&gt;backup&#45;create&#45;rsync</title>
<path fill="none" stroke="black" d="M313.85,-439.81C312.38,-431.79 310.6,-422.05 308.96,-413.07"/>
<polygon fill="black" stroke="black" points="312.36,-412.23 307.12,-403.03 305.48,-413.5 312.36,-412.23"/>
</g>
<!-- backup&#45;create&#45;&gt;backup&#45;make&#45;tag -->
<g id="edge9" class="edge">
<title>backup&#45;create&#45;&gt;backup&#45;make&#45;tag</title>
<path fill="none" stroke="black" d="M335.98,-439.91C353.56,-424.09 377,-403 377,-403 377,-403 377,-367 377,-367 377,-367 315,-294 315,-294 315,-294 289.19,-276.9 266.35,-261.76"/>
<polygon fill="black" stroke="black" points="268.08,-258.71 257.81,-256.1 264.21,-264.54 268.08,-258.71"/>
</g>
<!-- backup&#45;create&#45;rsync&#45;&gt;backup&#45;rsync -->
<g id="edge10" class="edge">
<title>backup&#45;create&#45;rsync&#45;&gt;backup&#45;rsync</title>
<path fill="none" stroke="black" d="M293.59,-366.81C288.47,-358.35 282.19,-347.98 276.51,-338.61"/>
<polygon fill="black" stroke="black" points="279.49,-336.77 271.31,-330.03 273.5,-340.4 279.49,-336.77"/>
</g>
<!-- backup&#45;du -->
<g id="node12" class="node">
<title>backup&#45;du</title>
<g id="a_node12"><a xlink:href="../#backup-du" xlink:title="backup&#45;du" target="_parent">
<polygon fill="none" stroke="black" points="326,-636 252,-636 252,-632 248,-632 248,-628 252,-628 252,-608 248,-608 248,-604 252,-604 252,-600 326,-600 326,-636"/>
<polyline fill="none" stroke="black" points="252,-632 256,-632 256,-628 252,-628 "/>
<polyline fill="none" stroke="black" points="252,-608 256,-608 256,-604 252,-604 "/>
<text text-anchor="middle" x="289" y="-614.3" font-family="Times,serif" font-size="14.00">backup&#45;du</text>
</a>
</g>
</g>
<!-- backup&#45;mirror -->
<g id="node13" class="node">
<title>backup&#45;mirror</title>
<g id="a_node13"><a xlink:href="../#backup-mirror" xlink:title="backup&#45;mirror" target="_parent">
<polygon fill="none" stroke="black" points="233.5,-636 136.5,-636 136.5,-632 132.5,-632 132.5,-628 136.5,-628 136.5,-608 132.5,-608 132.5,-604 136.5,-604 136.5,-600 233.5,-600 233.5,-636"/>
<polyline fill="none" stroke="black" points="136.5,-632 140.5,-632 140.5,-628 136.5,-628 "/>
<polyline fill="none" stroke="black" points="136.5,-608 140.5,-608 140.5,-604 136.5,-604 "/>
<text text-anchor="middle" x="185" y="-614.3" font-family="Times,serif" font-size="14.00">backup&#45;mirror</text>
</a>
</g>
</g>
<!-- backup&#45;mirror&#45;&gt;backup&#45;purge -->
<g id="edge12" class="edge">
<title>backup&#45;mirror&#45;&gt;backup&#45;purge</title>
<path fill="none" stroke="black" d="M192.49,-599.8C197.65,-587.93 204.62,-571.93 210.49,-558.45"/>
<polygon fill="black" stroke="black" points="213.74,-559.74 214.52,-549.18 207.32,-556.95 213.74,-559.74"/>
<text text-anchor="middle" x="208.5" y="-570.8" font-family="Times,serif" font-size="14.00">2</text>
</g>
<!-- backup&#45;mirror&#45;sources -->
<g id="node14" class="node">
<title>backup&#45;mirror&#45;sources</title>
<g id="a_node14"><a xlink:href="../#backup-mirror-sources" xlink:title="backup&#45;mirror&#45;sources" target="_parent">
<polygon fill="none" stroke="black" points="157.5,-549 16.5,-549 16.5,-545 12.5,-545 12.5,-541 16.5,-541 16.5,-521 12.5,-521 12.5,-517 16.5,-517 16.5,-513 157.5,-513 157.5,-549"/>
<polyline fill="none" stroke="black" points="16.5,-545 20.5,-545 20.5,-541 16.5,-541 "/>
<polyline fill="none" stroke="black" points="16.5,-521 20.5,-521 20.5,-517 16.5,-517 "/>
<text text-anchor="middle" x="87" y="-527.3" font-family="Times,serif" font-size="14.00">backup&#45;mirror&#45;sources</text>
</a>
</g>
</g>
<!-- backup&#45;mirror&#45;&gt;backup&#45;mirror&#45;sources -->
<g id="edge11" class="edge">
<title>backup&#45;mirror&#45;&gt;backup&#45;mirror&#45;sources</title>
<path fill="none" stroke="black" d="M165.17,-599.8C150.56,-587.13 130.5,-569.73 114.37,-555.74"/>
<polygon fill="black" stroke="black" points="116.65,-553.08 106.8,-549.18 112.06,-558.37 116.65,-553.08"/>
<text text-anchor="middle" x="144.5" y="-570.8" font-family="Times,serif" font-size="14.00">1</text>
</g>
<!-- backup&#45;mirror&#45;sources&#45;&gt;backup&#45;copy -->
<g id="edge13" class="edge">
<title>backup&#45;mirror&#45;sources&#45;&gt;backup&#45;copy</title>
<path fill="none" stroke="black" d="M80.46,-512.81C77.35,-504.62 73.55,-494.62 70.07,-485.48"/>
<polygon fill="black" stroke="black" points="73.3,-484.13 66.48,-476.03 66.76,-486.62 73.3,-484.13"/>
</g>
<!-- backup&#45;help -->
<g id="node16" class="node">
<title>backup&#45;help</title>
<g id="a_node16"><a xlink:href="../#backup-help" xlink:title="backup&#45;help" target="_parent">
<polygon fill="none" stroke="black" points="124,-109 40,-109 40,-105 36,-105 36,-101 40,-101 40,-81 36,-81 36,-77 40,-77 40,-73 124,-73 124,-109"/>
<polyline fill="none" stroke="black" points="40,-105 44,-105 44,-101 40,-101 "/>
<polyline fill="none" stroke="black" points="40,-81 44,-81 44,-77 40,-77 "/>
<text text-anchor="middle" x="82" y="-87.3" font-family="Times,serif" font-size="14.00">backup&#45;help</text>
</a>
</g>
</g>
<!-- backup&#45;nice&#45;&gt;backup&#45;help -->
<!-- ionice -->
<g id="node19" class="node">
<title>ionice</title>
<polygon fill="none" stroke="black" points="262,-36 208,-36 208,-32 204,-32 204,-28 208,-28 208,-8 204,-8 204,-4 208,-4 208,0 262,0 262,-36"/>
<polyline fill="none" stroke="black" points="208,-32 212,-32 212,-28 208,-28 "/>
<polyline fill="none" stroke="black" points="208,-8 212,-8 212,-4 208,-4 "/>
<text text-anchor="middle" x="235" y="-14.3" font-family="Times,serif" font-size="14.00">ionice</text>
</g>
<!-- backup&#45;nice&#45;&gt;ionice -->
<g id="edge23" class="edge">
<title>backup&#45;nice&#45;&gt;ionice</title>
<path fill="none" stroke="black" stroke-dasharray="5,2" d="M185.64,-145.92C195.28,-121.12 213.24,-74.95 224.63,-45.66"/>
<polygon fill="black" stroke="black" points="228,-46.65 228.36,-36.06 221.48,-44.11 228,-46.65"/>
</g>
<!-- nice -->
<g id="node20" class="node">
<title>nice</title>
<polygon fill="none" stroke="black" points="334,-36 280,-36 280,-32 276,-32 276,-28 280,-28 280,-8 276,-8 276,-4 280,-4 280,0 334,0 334,-36"/>
<polyline fill="none" stroke="black" points="280,-32 284,-32 284,-28 280,-28 "/>
<polyline fill="none" stroke="black" points="280,-8 284,-8 284,-4 280,-4 "/>
<text text-anchor="middle" x="307" y="-14.3" font-family="Times,serif" font-size="14.00">nice</text>
</g>
<!-- backup&#45;nice&#45;&gt;nice -->
<g id="edge24" class="edge">
<title>backup&#45;nice&#45;&gt;nice</title>
<path fill="none" stroke="black" stroke-dasharray="5,2" d="M194.19,-145.92C216.7,-120.58 259.07,-72.92 284.99,-43.76"/>
<polygon fill="black" stroke="black" points="287.81,-45.86 291.83,-36.06 282.57,-41.21 287.81,-45.86"/>
</g>
<!-- nocache -->
<g id="node21" class="node">
<title>nocache</title>
<polygon fill="none" stroke="black" points="189.5,-36 128.5,-36 128.5,-32 124.5,-32 124.5,-28 128.5,-28 128.5,-8 124.5,-8 124.5,-4 128.5,-4 128.5,0 189.5,0 189.5,-36"/>
<polyline fill="none" stroke="black" points="128.5,-32 132.5,-32 132.5,-28 128.5,-28 "/>
<polyline fill="none" stroke="black" points="128.5,-8 132.5,-8 132.5,-4 128.5,-4 "/>
<text text-anchor="middle" x="159" y="-14.3" font-family="Times,serif" font-size="14.00">nocache</text>
</g>
<!-- backup&#45;nice&#45;&gt;nocache -->
<g id="edge25" class="edge">
<title>backup&#45;nice&#45;&gt;nocache</title>
<path fill="none" stroke="black" stroke-dasharray="5,2" d="M176.63,-145.92C173.2,-121.23 166.83,-75.35 162.76,-46.04"/>
<polygon fill="black" stroke="black" points="166.21,-45.49 161.37,-36.06 159.28,-46.45 166.21,-45.49"/>
</g>
<!-- help2man -->
<g id="node18" class="node">
<title>help2man</title>
<polygon fill="none" stroke="black" points="110.5,-36 39.5,-36 39.5,-32 35.5,-32 35.5,-28 39.5,-28 39.5,-8 35.5,-8 35.5,-4 39.5,-4 39.5,0 110.5,0 110.5,-36"/>
<polyline fill="none" stroke="black" points="39.5,-32 43.5,-32 43.5,-28 39.5,-28 "/>
<polyline fill="none" stroke="black" points="39.5,-8 43.5,-8 43.5,-4 39.5,-4 "/>
<text text-anchor="middle" x="75" y="-14.3" font-family="Times,serif" font-size="14.00">help2man</text>
</g>
<!-- backup&#45;help&#45;&gt;help2man -->
<g id="edge22" class="edge">
<title>backup&#45;help&#45;&gt;help2man</title>
<path fill="none" stroke="black" stroke-dasharray="5,2" d="M80.31,-72.81C79.51,-64.79 78.55,-55.05 77.67,-46.07"/>
<polygon fill="black" stroke="black" points="81.14,-45.64 76.68,-36.03 74.18,-46.32 81.14,-45.64"/>
</g>
<!-- backup&#45;nologin -->
<g id="node17" class="node">
<title>backup&#45;nologin</title>
<g id="a_node17"><a xlink:href="../#backup-nologin" xlink:title="backup&#45;nologin" target="_parent">
<polygon fill="none" stroke="black" points="118,-636 16,-636 16,-632 12,-632 12,-628 16,-628 16,-608 12,-608 12,-604 16,-604 16,-600 118,-600 118,-636"/>
<polyline fill="none" stroke="black" points="16,-632 20,-632 20,-628 16,-628 "/>
<polyline fill="none" stroke="black" points="16,-608 20,-608 20,-604 16,-604 "/>
<text text-anchor="middle" x="67" y="-614.3" font-family="Times,serif" font-size="14.00">backup&#45;nologin</text>
</a>
</g>
</g>
<!-- ssh -->
<g id="node25" class="node">
<title>ssh</title>
<polygon fill="none" stroke="black" points="480,-182 426,-182 426,-178 422,-178 422,-174 426,-174 426,-154 422,-154 422,-150 426,-150 426,-146 480,-146 480,-182"/>
<polyline fill="none" stroke="black" points="426,-178 430,-178 430,-174 426,-174 "/>
<polyline fill="none" stroke="black" points="426,-154 430,-154 430,-150 426,-150 "/>
<text text-anchor="middle" x="453" y="-160.3" font-family="Times,serif" font-size="14.00">ssh</text>
</g>
<!-- rsync&#45;&gt;ssh -->
<g id="edge29" class="edge">
<title>rsync&#45;&gt;ssh</title>
<path fill="none" stroke="black" stroke-dasharray="5,2" d="M453,-219.94C453,-211.81 453,-201.88 453,-192.7"/>
<polygon fill="black" stroke="black" points="456.5,-192.44 453,-182.44 449.5,-192.44 456.5,-192.44"/>
</g>
</g>
</svg>
