<?xml version="1.0" encoding="UTF-8" standalone="no"?>
<!DOCTYPE svg PUBLIC "-//W3C//DTD SVG 1.1//EN"
 "http://www.w3.org/Graphics/SVG/1.1/DTD/svg11.dtd">
<!-- Generated by graphviz version 2.43.0 (0)
 -->
<!-- Title: rsync&#45;backup Pages: 1 -->
<svg width="698pt" height="683pt"
 viewBox="0.00 0.00 697.50 683.00" xmlns="http://www.w3.org/2000/svg" xmlns:xlink="http://www.w3.org/1999/xlink">
<g id="graph0" class="graph" transform="scale(1 1) rotate(0) translate(4 679)">
<title>rsync&#45;backup</title>
<polygon fill="white" stroke="transparent" points="-4,4 -4,-679 693.5,-679 693.5,4 -4,4"/>
<g id="clust1" class="cluster">
<title>cluster:tools</title>
<polygon fill="none" stroke="black" points="8,-65 8,-667 500,-667 500,-65 8,-65"/>
<text text-anchor="middle" x="254" y="-651.8" font-family="Times,serif" font-size="14.00">tools/</text>
</g>
<!-- backup -->
<g id="node1" class="node">
<title>backup</title>
<g id="a_node1"><a xlink:href="../#backup" xlink:title="backup" target="_parent">
<polygon fill="none" stroke="black" points="473,-636 405,-636 405,-632 401,-632 401,-628 405,-628 405,-608 401,-608 401,-604 405,-604 405,-600 473,-600 473,-636"/>
<polyline fill="none" stroke="black" points="405,-632 409,-632 409,-628 405,-628 "/>
<polyline fill="none" stroke="black" points="405,-608 409,-608 409,-604 405,-604 "/>
<text text-anchor="middle" x="439" y="-614.3" font-family="Times,serif" font-size="14.00">backup</text>
</a>
</g>
</g>
<!-- backup&#45;prepare -->
<g id="node2" class="node">
<title>backup&#45;prepare</title>
<g id="a_node2"><a xlink:href="../#backup-prepare" xlink:title="backup&#45;prepare" target="_parent">
<polygon fill="none" stroke="black" points="492,-256 364,-256 364,-252 360,-252 360,-248 364,-248 364,-228 360,-228 360,-224 364,-224 364,-220 492,-220 492,-256"/>
<polyline fill="none" stroke="black" points="364,-252 368,-252 368,-248 364,-248 "/>
<polyline fill="none" stroke="black" points="364,-228 368,-228 368,-224 364,-224 "/>
<text text-anchor="middle" x="428" y="-234.3" font-family="Times,serif" font-size="14.00">backup&#45;prepare</text>
</a>
</g>
</g>
<!-- backup&#45;&gt;backup&#45;prepare -->
<g id="edge1" class="edge">
<title>backup&#45;&gt;backup&#45;prepare</title>
<path fill="none" stroke="black" d="M449.6,-599.84C462.04,-579.7 481,-549 481,-549 481,-549 491,-532 491,-532 491,-532 491,-532 491,-311 491,-311 467.85,-284.55 449.62,-263.71"/>
<polygon fill="black" stroke="black" points="452.15,-261.28 442.93,-256.06 446.88,-265.89 452.15,-261.28"/>
<text text-anchor="middle" x="444.6" y="-588.64" font-family="Times,serif" font-size="14.00">1</text>
</g>
<!-- backup&#45;sources -->
<g id="node3" class="node">
<title>backup&#45;sources</title>
<g id="a_node3"><a xlink:href="../#backup-sources" xlink:title="backup&#45;sources" target="_parent">
<polygon fill="none" stroke="black" points="471.5,-549 344.5,-549 344.5,-545 340.5,-545 340.5,-541 344.5,-541 344.5,-521 340.5,-521 340.5,-517 344.5,-517 344.5,-513 471.5,-513 471.5,-549"/>
<polyline fill="none" stroke="black" points="344.5,-545 348.5,-545 348.5,-541 344.5,-541 "/>
<polyline fill="none" stroke="black" points="344.5,-521 348.5,-521 348.5,-517 344.5,-517 "/>
<text text-anchor="middle" x="408" y="-527.3" font-family="Times,serif" font-size="14.00">backup&#45;sources</text>
</a>
</g>
</g>
<!-- backup&#45;&gt;backup&#45;sources -->
<g id="edge2" class="edge">
<title>backup&#45;&gt;backup&#45;sources</title>
<path fill="none" stroke="black" d="M432.73,-599.8C428.44,-588.05 422.68,-572.24 417.79,-558.84"/>
<polygon fill="black" stroke="black" points="420.98,-557.37 414.26,-549.18 414.4,-559.77 420.98,-557.37"/>
<text text-anchor="middle" x="430" y="-570.8" font-family="Times,serif" font-size="14.00">2</text>
</g>
<!-- backup&#45;purge -->
<g id="node4" class="node">
<title>backup&#45;purge</title>
<g id="a_node4"><a xlink:href="../#backup-purge" xlink:title="backup&#45;purge" target="_parent">
<polygon fill="none" stroke="black" points="326,-549 212,-549 212,-545 208,-545 208,-541 212,-541 212,-521 208,-521 208,-517 212,-517 212,-513 326,-513 326,-549"/>
<polyline fill="none" stroke="black" points="212,-545 216,-545 216,-541 212,-541 "/>
<polyline fill="none" stroke="black" points="212,-521 216,-521 216,-517 212,-517 "/>
<text text-anchor="middle" x="269" y="-527.3" font-family="Times,serif" font-size="14.00">backup&#45;purge</text>
</a>
</g>
</g>
<!-- backup&#45;&gt;backup&#45;purge -->
<g id="edge3" class="edge">
<title>backup&#45;&gt;backup&#45;purge</title>
<path fill="none" stroke="black" d="M404.6,-599.8C377.9,-586.45 340.72,-567.86 312.05,-553.52"/>
<polygon fill="black" stroke="black" points="313.57,-550.37 303.06,-549.03 310.44,-556.63 313.57,-550.37"/>
<text text-anchor="middle" x="369" y="-570.8" font-family="Times,serif" font-size="14.00">3</text>
</g>
<!-- backup&#45;nice -->
<g id="node15" class="node">
<title>backup&#45;nice</title>
<g id="a_node15"><a xlink:href="../#backup-nice" xlink:title="backup&#45;nice" target="_parent">
<polygon fill="none" stroke="black" points="311.5,-182 210.5,-182 210.5,-178 206.5,-178 206.5,-174 210.5,-174 210.5,-154 206.5,-154 206.5,-150 210.5,-150 210.5,-146 311.5,-146 311.5,-182"/>
<polyline fill="none" stroke="black" points="210.5,-178 214.5,-178 214.5,-174 210.5,-174 "/>
<polyline fill="none" stroke="black" points="210.5,-154 214.5,-154 214.5,-150 210.5,-150 "/>
<text text-anchor="middle" x="261" y="-160.3" font-family="Times,serif" font-size="14.00">backup&#45;nice</text>
</a>
</g>
</g>
<!-- backup&#45;prepare&#45;&gt;backup&#45;nice -->
<g id="edge15" class="edge">
<title>backup&#45;prepare&#45;&gt;backup&#45;nice</title>
<path fill="none" stroke="black" d="M388.42,-219.94C364.9,-209.8 334.88,-196.85 309.89,-186.08"/>
<polygon fill="black" stroke="black" points="311.15,-182.81 300.58,-182.07 308.38,-189.24 311.15,-182.81"/>
</g>
<!-- backup&#45;create -->
<g id="node9" class="node">
<title>backup&#45;create</title>
<g id="a_node9"><a xlink:href="../#backup-create" xlink:title="backup&#45;create" target="_parent">
<polygon fill="none" stroke="black" points="443.5,-476 326.5,-476 326.5,-472 322.5,-472 322.5,-468 326.5,-468 326.5,-448 322.5,-448 322.5,-444 326.5,-444 326.5,-440 443.5,-440 443.5,-476"/>
<polyline fill="none" stroke="black" points="326.5,-472 330.5,-472 330.5,-468 326.5,-468 "/>
<polyline fill="none" stroke="black" points="326.5,-448 330.5,-448 330.5,-444 326.5,-444 "/>
<text text-anchor="middle" x="385" y="-454.3" font-family="Times,serif" font-size="14.00">backup&#45;create</text>
</a>
</g>
</g>
<!-- backup&#45;sources&#45;&gt;backup&#45;create -->
<g id="edge21" class="edge">
<title>backup&#45;sources&#45;&gt;backup&#45;create</title>
<path fill="none" stroke="black" d="M402.43,-512.81C399.8,-504.7 396.61,-494.84 393.67,-485.78"/>
<polygon fill="black" stroke="black" points="396.93,-484.46 390.52,-476.03 390.27,-486.62 396.93,-484.46"/>
</g>
<!-- backup&#45;clean&#45;tmp -->
<g id="node6" class="node">
<title>backup&#45;clean&#45;tmp</title>
<g id="a_node6"><a xlink:href="../#backup-clean-tmp" xlink:title="backup&#45;clean&#45;tmp" target="_parent">
<polygon fill="none" stroke="black" points="164.5,-256 21.5,-256 21.5,-252 17.5,-252 17.5,-248 21.5,-248 21.5,-228 17.5,-228 17.5,-224 21.5,-224 21.5,-220 164.5,-220 164.5,-256"/>
<polyline fill="none" stroke="black" points="21.5,-252 25.5,-252 25.5,-248 21.5,-248 "/>
<polyline fill="none" stroke="black" points="21.5,-228 25.5,-228 25.5,-224 21.5,-224 "/>
<text text-anchor="middle" x="93" y="-234.3" font-family="Times,serif" font-size="14.00">backup&#45;clean&#45;tmp</text>
</a>
</g>
</g>
<!-- backup&#45;purge&#45;&gt;backup&#45;clean&#45;tmp -->
<g id="edge16" class="edge">
<title>backup&#45;purge&#45;&gt;backup&#45;clean&#45;tmp</title>
<path fill="none" stroke="black" d="M247.02,-512.87C202.53,-478.21 106,-403 106,-403 106,-403 96,-330 96,-330 96,-330 93,-276 93,-276 93,-276 93,-271.84 93,-266.31"/>
<polygon fill="black" stroke="black" points="96.5,-266.2 93,-256.2 89.5,-266.2 96.5,-266.2"/>
</g>
<!-- on_ac_power -->
<g id="node22" class="node">
<title>on_ac_power</title>
<polygon fill="none" stroke="black" points="617.5,-476 510.5,-476 510.5,-472 506.5,-472 506.5,-468 510.5,-468 510.5,-448 506.5,-448 506.5,-444 510.5,-444 510.5,-440 617.5,-440 617.5,-476"/>
<polyline fill="none" stroke="black" points="510.5,-472 514.5,-472 514.5,-468 510.5,-468 "/>
<polyline fill="none" stroke="black" points="510.5,-448 514.5,-448 514.5,-444 510.5,-444 "/>
<text text-anchor="middle" x="564" y="-454.3" font-family="Times,serif" font-size="14.00">on_ac_power</text>
</g>
<!-- backup&#45;purge&#45;&gt;on_ac_power -->
<g id="edge26" class="edge">
<title>backup&#45;purge&#45;&gt;on_ac_power</title>
<path fill="none" stroke="black" stroke-dasharray="5,2" d="M326.11,-515.51C332.07,-514 336,-513 336,-513 336,-513 463.48,-484.92 500.59,-476.48"/>
<polygon fill="black" stroke="black" points="501.48,-479.87 510.42,-474.18 499.89,-473.05 501.48,-479.87"/>
</g>
<!-- backup&#45;copy -->
<g id="node5" class="node">
<title>backup&#45;copy</title>
<g id="a_node5"><a xlink:href="../#backup-copy" xlink:title="backup&#45;copy" target="_parent">
<polygon fill="none" stroke="black" points="121.5,-476 16.5,-476 16.5,-472 12.5,-472 12.5,-468 16.5,-468 16.5,-448 12.5,-448 12.5,-444 16.5,-444 16.5,-440 121.5,-440 121.5,-476"/>
<polyline fill="none" stroke="black" points="16.5,-472 20.5,-472 20.5,-468 16.5,-468 "/>
<polyline fill="none" stroke="black" points="16.5,-448 20.5,-448 20.5,-444 16.5,-444 "/>
<text text-anchor="middle" x="69" y="-454.3" font-family="Times,serif" font-size="14.00">backup&#45;copy</text>
</a>
</g>
</g>
<!-- backup&#45;copy&#45;&gt;backup&#45;clean&#45;tmp -->
<g id="edge4" class="edge">
<title>backup&#45;copy&#45;&gt;backup&#45;clean&#45;tmp</title>
<path fill="none" stroke="black" d="M70.03,-439.88C72.77,-394.57 80,-275 80,-275 80,-275 81.42,-271.07 83.32,-265.81"/>
<polygon fill="black" stroke="black" points="86.7,-266.75 86.8,-256.16 80.12,-264.37 86.7,-266.75"/>
</g>
<!-- backup&#45;copy&#45;rsync -->
<g id="node7" class="node">
<title>backup&#45;copy&#45;rsync</title>
<g id="a_node7"><a xlink:href="../#backup-copy-rsync" xlink:title="backup&#45;copy&#45;rsync" target="_parent">
<polygon fill="none" stroke="black" points="272.5,-403 123.5,-403 123.5,-399 119.5,-399 119.5,-395 123.5,-395 123.5,-375 119.5,-375 119.5,-371 123.5,-371 123.5,-367 272.5,-367 272.5,-403"/>
<polyline fill="none" stroke="black" points="123.5,-399 127.5,-399 127.5,-395 123.5,-395 "/>
<polyline fill="none" stroke="black" points="123.5,-375 127.5,-375 127.5,-371 123.5,-371 "/>
<text text-anchor="middle" x="198" y="-381.3" font-family="Times,serif" font-size="14.00">backup&#45;copy&#45;rsync</text>
</a>
</g>
</g>
<!-- backup&#45;copy&#45;&gt;backup&#45;copy&#45;rsync -->
<g id="edge5" class="edge">
<title>backup&#45;copy&#45;&gt;backup&#45;copy&#45;rsync</title>
<path fill="none" stroke="black" d="M99.9,-439.99C117.32,-430.4 139.28,-418.32 158.01,-408.01"/>
<polygon fill="black" stroke="black" points="159.83,-411 166.91,-403.11 156.46,-404.87 159.83,-411"/>
</g>
<!-- backup&#45;rsync -->
<g id="node8" class="node">
<title>backup&#45;rsync</title>
<g id="a_node8"><a xlink:href="../#backup-rsync" xlink:title="backup&#45;rsync" target="_parent">
<polygon fill="none" stroke="black" points="391.5,-330 280.5,-330 280.5,-326 276.5,-326 276.5,-322 280.5,-322 280.5,-302 276.5,-302 276.5,-298 280.5,-298 280.5,-294 391.5,-294 391.5,-330"/>
<polyline fill="none" stroke="black" points="280.5,-326 284.5,-326 284.5,-322 280.5,-322 "/>
<polyline fill="none" stroke="black" points="280.5,-302 284.5,-302 284.5,-298 280.5,-298 "/>
<text text-anchor="middle" x="336" y="-308.3" font-family="Times,serif" font-size="14.00">backup&#45;rsync</text>
</a>
</g>
</g>
<!-- backup&#45;copy&#45;rsync&#45;&gt;backup&#45;rsync -->
<g id="edge6" class="edge">
<title>backup&#45;copy&#45;rsync&#45;&gt;backup&#45;rsync</title>
<path fill="none" stroke="black" d="M231.05,-366.99C249.86,-357.32 273.61,-345.1 293.76,-334.73"/>
<polygon fill="black" stroke="black" points="295.45,-337.8 302.74,-330.11 292.24,-331.58 295.45,-337.8"/>
</g>
<!-- backup&#45;rsync&#45;&gt;backup&#45;prepare -->
<g id="edge20" class="edge">
<title>backup&#45;rsync&#45;&gt;backup&#45;prepare</title>
<path fill="none" stroke="black" stroke-dasharray="5,2" d="M357.8,-293.94C369.86,-284.5 385.02,-272.64 398.16,-262.35"/>
<polygon fill="black" stroke="black" points="400.32,-265.11 406.03,-256.19 396,-259.6 400.32,-265.11"/>
</g>
<!-- backup&#45;rsync&#45;&gt;backup&#45;clean&#45;tmp -->
<g id="edge17" class="edge">
<title>backup&#45;rsync&#45;&gt;backup&#45;clean&#45;tmp</title>
<path fill="none" stroke="black" stroke-dasharray="5,2" d="M280.26,-298.17C236.88,-288.18 184,-276 184,-276 184,-276 165.11,-268.32 144.54,-259.96"/>
<polygon fill="black" stroke="black" points="145.62,-256.62 135.04,-256.09 142.98,-263.1 145.62,-256.62"/>
</g>
<!-- backup&#45;make&#45;tag -->
<g id="node11" class="node">
<title>backup&#45;make&#45;tag</title>
<g id="a_node11"><a xlink:href="../#backup-make-tag" xlink:title="backup&#45;make&#45;tag" target="_parent">
<polygon fill="none" stroke="black" points="346,-256 208,-256 208,-252 204,-252 204,-248 208,-248 208,-228 204,-228 204,-224 208,-224 208,-220 346,-220 346,-256"/>
<polyline fill="none" stroke="black" points="208,-252 212,-252 212,-248 208,-248 "/>
<polyline fill="none" stroke="black" points="208,-228 212,-228 212,-224 208,-224 "/>
<text text-anchor="middle" x="277" y="-234.3" font-family="Times,serif" font-size="14.00">backup&#45;make&#45;tag</text>
</a>
</g>
</g>
<!-- backup&#45;rsync&#45;&gt;backup&#45;make&#45;tag -->
<g id="edge18" class="edge">
<title>backup&#45;rsync&#45;&gt;backup&#45;make&#45;tag</title>
<path fill="none" stroke="black" stroke-dasharray="5,2" d="M322.02,-293.94C314.78,-285.1 305.79,-274.14 297.76,-264.33"/>
<polygon fill="black" stroke="black" points="300.34,-261.96 291.29,-256.44 294.92,-266.39 300.34,-261.96"/>
</g>
<!-- backup&#45;rsync&#45;&gt;backup&#45;nice -->
<g id="edge19" class="edge">
<title>backup&#45;rsync&#45;&gt;backup&#45;nice</title>
<path fill="none" stroke="black" d="M292.65,-293.91C252.52,-278.09 199,-257 199,-257 199,-257 199,-219 199,-219 199,-219 216.89,-203.42 233.44,-189"/>
<polygon fill="black" stroke="black" points="236.14,-191.29 241.38,-182.09 231.54,-186.01 236.14,-191.29"/>
</g>
<!-- rsync -->
<g id="node23" class="node">
<title>rsync</title>
<polygon fill="none" stroke="black" points="566,-256 510,-256 510,-252 506,-252 506,-248 510,-248 510,-228 506,-228 506,-224 510,-224 510,-220 566,-220 566,-256"/>
<polyline fill="none" stroke="black" points="510,-252 514,-252 514,-248 510,-248 "/>
<polyline fill="none" stroke="black" points="510,-228 514,-228 514,-224 510,-224 "/>
<text text-anchor="middle" x="538" y="-234.3" font-family="Times,serif" font-size="14.00">rsync</text>
</g>
<!-- backup&#45;rsync&#45;&gt;rsync -->
<g id="edge27" class="edge">
<title>backup&#45;rsync&#45;&gt;rsync</title>
<path fill="none" stroke="black" d="M389.16,-293.91C428.95,-281.12 479.48,-264.88 500.49,-257.48"/>
<polygon fill="black" stroke="black" points="501.84,-260.71 509.92,-253.86 499.33,-254.17 501.84,-260.71"/>
</g>
<!-- jdupes /\nduperemove -->
<g id="node24" class="node">
<title>jdupes /\nduperemove</title>
<polygon fill="none" stroke="black" points="689.5,-257 584.5,-257 584.5,-253 580.5,-253 580.5,-249 584.5,-249 584.5,-227 580.5,-227 580.5,-223 584.5,-223 584.5,-219 689.5,-219 689.5,-257"/>
<polyline fill="none" stroke="black" points="584.5,-253 588.5,-253 588.5,-249 584.5,-249 "/>
<polyline fill="none" stroke="black" points="584.5,-227 588.5,-227 588.5,-223 584.5,-223 "/>
<text text-anchor="middle" x="637" y="-241.8" font-family="Times,serif" font-size="14.00">jdupes /</text>
<text text-anchor="middle" x="637" y="-226.8" font-family="Times,serif" font-size="14.00">duperemove</text>
</g>
<!-- backup&#45;rsync&#45;&gt;jdupes /\nduperemove -->
<g id="edge28" class="edge">
<title>backup&#45;rsync&#45;&gt;jdupes /\nduperemove</title>
<path fill="none" stroke="black" stroke-dasharray="5,2" d="M391.73,-298.41C452.15,-284.76 543.32,-264.16 574.3,-256.78"/>
<polygon fill="black" stroke="black" points="575.55,-260.07 584.42,-254.27 573.87,-253.28 575.55,-260.07"/>
</g>
<!-- backup&#45;create&#45;&gt;backup&#45;clean&#45;tmp -->
<g id="edge7" class="edge">
<title>backup&#45;create&#45;&gt;backup&#45;clean&#45;tmp</title>
<path fill="none" stroke="black" d="M326.41,-445.28C247,-429.4 115,-403 115,-403 115,-403 102.92,-312.93 96.66,-266.29"/>
<polygon fill="black" stroke="black" points="100.11,-265.69 95.31,-256.24 93.17,-266.62 100.11,-265.69"/>
</g>
<!-- backup&#45;create&#45;rsync -->
<g id="node10" class="node">
<title>backup&#45;create&#45;rsync</title>
<g id="a_node10"><a xlink:href="../#backup-create-rsync" xlink:title="backup&#45;create&#45;rsync" target="_parent">
<polygon fill="none" stroke="black" points="451.5,-403 290.5,-403 290.5,-399 286.5,-399 286.5,-395 290.5,-395 290.5,-375 286.5,-375 286.5,-371 290.5,-371 290.5,-367 451.5,-367 451.5,-403"/>
<polyline fill="none" stroke="black" points="290.5,-399 294.5,-399 294.5,-395 290.5,-395 "/>
<polyline fill="none" stroke="black" points="290.5,-375 294.5,-375 294.5,-371 290.5,-371 "/>
<text text-anchor="middle" x="371" y="-381.3" font-family="Times,serif" font-size="14.00">backup&#45;create&#45;rsync</text>
</a>
</g>
</g>
<!-- backup&#45;create&#45;&gt;backup&#45;create&#45;rsync -->
<g id="edge8" class="edge">
<title>backup&#45;create&#45;&gt;backup&#45;create&#45;rsync</title>
<path fill="none" stroke="black" d="M381.61,-439.81C380.03,-431.79 378.11,-422.05 376.34,-413.07"/>
<polygon fill="black" stroke="black" points="379.73,-412.16 374.36,-403.03 372.86,-413.52 379.73,-412.16"/>
</g>
<!-- backup&#45;create&#45;&gt;backup&#45;make&#45;tag -->
<g id="edge9" class="edge">
<title>backup&#45;create&#45;&gt;backup&#45;make&#45;tag</title>
<path fill="none" stroke="black" d="M409.05,-439.91C431.31,-424.09 461,-403 461,-403 461,-403 461,-367 461,-367 461,-367 401,-294 401,-294 401,-294 359.67,-275.67 324.73,-260.17"/>
<polygon fill="black" stroke="black" points="326.11,-256.96 315.55,-256.1 323.28,-263.35 326.11,-256.96"/>
</g>
<!-- backup&#45;create&#45;rsync&#45;&gt;backup&#45;rsync -->
<g id="edge10" class="edge">
<title>backup&#45;create&#45;rsync&#45;&gt;backup&#45;rsync</title>
<path fill="none" stroke="black" d="M362.53,-366.81C358.44,-358.53 353.46,-348.41 348.91,-339.19"/>
<polygon fill="black" stroke="black" points="351.96,-337.45 344.39,-330.03 345.68,-340.55 351.96,-337.45"/>
</g>
<!-- backup&#45;du -->
<g id="node12" class="node">
<title>backup&#45;du</title>
<g id="a_node12"><a xlink:href="../#backup-du" xlink:title="backup&#45;du" target="_parent">
<polygon fill="none" stroke="black" points="387,-636 297,-636 297,-632 293,-632 293,-628 297,-628 297,-608 293,-608 293,-604 297,-604 297,-600 387,-600 387,-636"/>
<polyline fill="none" stroke="black" points="297,-632 301,-632 301,-628 297,-628 "/>
<polyline fill="none" stroke="black" points="297,-608 301,-608 301,-604 297,-604 "/>
<text text-anchor="middle" x="342" y="-614.3" font-family="Times,serif" font-size="14.00">backup&#45;du</text>
</a>
</g>
</g>
<!-- backup&#45;mirror -->
<g id="node13" class="node">
<title>backup&#45;mirror</title>
<g id="a_node13"><a xlink:href="../#backup-mirror" xlink:title="backup&#45;mirror" target="_parent">
<polygon fill="none" stroke="black" points="278.5,-636 159.5,-636 159.5,-632 155.5,-632 155.5,-628 159.5,-628 159.5,-608 155.5,-608 155.5,-604 159.5,-604 159.5,-600 278.5,-600 278.5,-636"/>
<polyline fill="none" stroke="black" points="159.5,-632 163.5,-632 163.5,-628 159.5,-628 "/>
<polyline fill="none" stroke="black" points="159.5,-608 163.5,-608 163.5,-604 159.5,-604 "/>
<text text-anchor="middle" x="219" y="-614.3" font-family="Times,serif" font-size="14.00">backup&#45;mirror</text>
</a>
</g>
</g>
<!-- backup&#45;mirror&#45;&gt;backup&#45;purge -->
<g id="edge12" class="edge">
<title>backup&#45;mirror&#45;&gt;backup&#45;purge</title>
<path fill="none" stroke="black" d="M229.12,-599.8C236.17,-587.82 245.7,-571.62 253.67,-558.06"/>
<polygon fill="black" stroke="black" points="256.84,-559.57 258.9,-549.18 250.81,-556.02 256.84,-559.57"/>
<text text-anchor="middle" x="251" y="-570.8" font-family="Times,serif" font-size="14.00">2</text>
</g>
<!-- backup&#45;mirror&#45;sources -->
<g id="node14" class="node">
<title>backup&#45;mirror&#45;sources</title>
<g id="a_node14"><a xlink:href="../#backup-mirror-sources" xlink:title="backup&#45;mirror&#45;sources" target="_parent">
<polygon fill="none" stroke="black" points="194,-549 16,-549 16,-545 12,-545 12,-541 16,-541 16,-521 12,-521 12,-517 16,-517 16,-513 194,-513 194,-549"/>
<polyline fill="none" stroke="black" points="16,-545 20,-545 20,-541 16,-541 "/>
<polyline fill="none" stroke="black" points="16,-521 20,-521 20,-517 16,-517 "/>
<text text-anchor="middle" x="105" y="-527.3" font-family="Times,serif" font-size="14.00">backup&#45;mirror&#45;sources</text>
</a>
</g>
</g>
<!-- backup&#45;mirror&#45;&gt;backup&#45;mirror&#45;sources -->
<g id="edge11" class="edge">
<title>backup&#45;mirror&#45;&gt;backup&#45;mirror&#45;sources</title>
<path fill="none" stroke="black" d="M195.93,-599.8C178.7,-586.95 154.97,-569.26 136.07,-555.17"/>
<polygon fill="black" stroke="black" points="138.14,-552.35 128.04,-549.18 133.96,-557.96 138.14,-552.35"/>
<text text-anchor="middle" x="173" y="-570.8" font-family="Times,serif" font-size="14.00">1</text>
</g>
<!-- backup&#45;mirror&#45;sources&#45;&gt;backup&#45;copy -->
<g id="edge13" class="edge">
<title>backup&#45;mirror&#45;sources&#45;&gt;backup&#45;copy</title>
<path fill="none" stroke="black" d="M96.29,-512.81C92.08,-504.53 86.95,-494.41 82.28,-485.19"/>
<polygon fill="black" stroke="black" points="85.28,-483.37 77.63,-476.03 79.04,-486.53 85.28,-483.37"/>
</g>
<!-- backup&#45;help -->
<g id="node16" class="node">
<title>backup&#45;help</title>
<g id="a_node16"><a xlink:href="../#backup-help" xlink:title="backup&#45;help" target="_parent">
<polygon fill="none" stroke="black" points="180.5,-109 77.5,-109 77.5,-105 73.5,-105 73.5,-101 77.5,-101 77.5,-81 73.5,-81 73.5,-77 77.5,-77 77.5,-73 180.5,-73 180.5,-109"/>
<polyline fill="none" stroke="black" points="77.5,-105 81.5,-105 81.5,-101 77.5,-101 "/>
<polyline fill="none" stroke="black" points="77.5,-81 81.5,-81 81.5,-77 77.5,-77 "/>
<text text-anchor="middle" x="129" y="-87.3" font-family="Times,serif" font-size="14.00">backup&#45;help</text>
</a>
</g>
</g>
<!-- backup&#45;nice&#45;&gt;backup&#45;help -->
<!-- ionice -->
<g id="node19" class="node">
<title>ionice</title>
<polygon fill="none" stroke="black" points="333.5,-36 274.5,-36 274.5,-32 270.5,-32 270.5,-28 274.5,-28 274.5,-8 270.5,-8 270.5,-4 274.5,-4 274.5,0 333.5,0 333.5,-36"/>
<polyline fill="none" stroke="black" points="274.5,-32 278.5,-32 278.5,-28 274.5,-28 "/>
<polyline fill="none" stroke="black" points="274.5,-8 278.5,-8 278.5,-4 274.5,-4 "/>
<text text-anchor="middle" x="304" y="-14.3" font-family="Times,serif" font-size="14.00">ionice</text>
</g>
<!-- backup&#45;nice&#45;&gt;ionice -->
<g id="edge23" class="edge">
<title>backup&#45;nice&#45;&gt;ionice</title>
<path fill="none" stroke="black" stroke-dasharray="5,2" d="M266.1,-145.92C273.5,-121.12 287.29,-74.95 296.04,-45.66"/>
<polygon fill="black" stroke="black" points="299.4,-46.65 298.91,-36.06 292.69,-44.64 299.4,-46.65"/>
</g>
<!-- nice -->
<g id="node20" class="node">
<title>nice</title>
<polygon fill="none" stroke="black" points="406,-36 352,-36 352,-32 348,-32 348,-28 352,-28 352,-8 348,-8 348,-4 352,-4 352,0 406,0 406,-36"/>
<polyline fill="none" stroke="black" points="352,-32 356,-32 356,-28 352,-28 "/>
<polyline fill="none" stroke="black" points="352,-8 356,-8 356,-4 352,-4 "/>
<text text-anchor="middle" x="379" y="-14.3" font-family="Times,serif" font-size="14.00">nice</text>
</g>
<!-- backup&#45;nice&#45;&gt;nice -->
<g id="edge24" class="edge">
<title>backup&#45;nice&#45;&gt;nice</title>
<path fill="none" stroke="black" stroke-dasharray="5,2" d="M275,-145.92C295.67,-120.69 334.48,-73.33 358.4,-44.14"/>
<polygon fill="black" stroke="black" points="361.39,-46.02 365.02,-36.06 355.97,-41.58 361.39,-46.02"/>
</g>
<!-- nocache -->
<g id="node21" class="node">
<title>nocache</title>
<polygon fill="none" stroke="black" points="256,-36 182,-36 182,-32 178,-32 178,-28 182,-28 182,-8 178,-8 178,-4 182,-4 182,0 256,0 256,-36"/>
<polyline fill="none" stroke="black" points="182,-32 186,-32 186,-28 182,-28 "/>
<polyline fill="none" stroke="black" points="182,-8 186,-8 186,-4 182,-4 "/>
<text text-anchor="middle" x="219" y="-14.3" font-family="Times,serif" font-size="14.00">nocache</text>
</g>
<!-- backup&#45;nice&#45;&gt;nocache -->
<g id="edge25" class="edge">
<title>backup&#45;nice&#45;&gt;nocache</title>
<path fill="none" stroke="black" stroke-dasharray="5,2" d="M256.02,-145.92C248.82,-121.23 235.44,-75.35 226.89,-46.04"/>
<polygon fill="black" stroke="black" points="230.14,-44.68 223.98,-36.06 223.42,-46.64 230.14,-44.68"/>
</g>
<!-- help2man -->
<g id="node18" class="node">
<title>help2man</title>
<polygon fill="none" stroke="black" points="163.5,-36 76.5,-36 76.5,-32 72.5,-32 72.5,-28 76.5,-28 76.5,-8 72.5,-8 72.5,-4 76.5,-4 76.5,0 163.5,0 163.5,-36"/>
<polyline fill="none" stroke="black" points="76.5,-32 80.5,-32 80.5,-28 76.5,-28 "/>
<polyline fill="none" stroke="black" points="76.5,-8 80.5,-8 80.5,-4 76.5,-4 "/>
<text text-anchor="middle" x="120" y="-14.3" font-family="Times,serif" font-size="14.00">help2man</text>
</g>
<!-- backup&#45;help&#45;&gt;help2man -->
<g id="edge22" class="edge">
<title>backup&#45;help&#45;&gt;help2man</title>
<path fill="none" stroke="black" stroke-dasharray="5,2" d="M126.82,-72.81C125.8,-64.79 124.57,-55.05 123.43,-46.07"/>
<polygon fill="black" stroke="black" points="126.89,-45.51 122.16,-36.03 119.94,-46.39 126.89,-45.51"/>
</g>
<!-- backup&#45;nologin -->
<g id="node17" class="node">
<title>backup&#45;nologin</title>
<g id="a_node17"><a xlink:href="../#backup-nologin" xlink:title="backup&#45;nologin" target="_parent">
<polygon fill="none" stroke="black" points="141.5,-636 16.5,-636 16.5,-632 12.5,-632 12.5,-628 16.5,-628 16.5,-608 12.5,-608 12.5,-604 16.5,-604 16.5,-600 141.5,-600 141.5,-636"/>
<polyline fill="none" stroke="black" points="16.5,-632 20.5,-632 20.5,-628 16.5,-628 "/>
<polyline fill="none" stroke="black" points="16.5,-608 20.5,-608 20.5,-604 16.5,-604 "/>
<text text-anchor="middle" x="79" y="-614.3" font-family="Times,serif" font-size="14.00">backup&#45;nologin</text>
</a>
</g>
</g>
<!-- ssh -->
<g id="node25" class="node">
<title>ssh</title>
<polygon fill="none" stroke="black" points="565,-182 511,-182 511,-178 507,-178 507,-174 511,-174 511,-154 507,-154 507,-150 511,-150 511,-146 565,-146 565,-182"/>
<polyline fill="none" stroke="black" points="511,-178 515,-178 515,-174 511,-174 "/>
<polyline fill="none" stroke="black" points="511,-154 515,-154 515,-150 511,-150 "/>
<text text-anchor="middle" x="538" y="-160.3" font-family="Times,serif" font-size="14.00">ssh</text>
</g>
<!-- rsync&#45;&gt;ssh -->
<g id="edge29" class="edge">
<title>rsync&#45;&gt;ssh</title>
<path fill="none" stroke="black" stroke-dasharray="5,2" d="M538,-219.94C538,-211.81 538,-201.88 538,-192.7"/>
<polygon fill="black" stroke="black" points="541.5,-192.44 538,-182.44 534.5,-192.44 541.5,-192.44"/>
</g>
</g>
</svg>
