<?xml version="1.0" encoding="UTF-8" standalone="no"?>
<!DOCTYPE svg PUBLIC "-//W3C//DTD SVG 1.1//EN"
 "http://www.w3.org/Graphics/SVG/1.1/DTD/svg11.dtd">
<!-- Generated by graphviz version 2.43.0 (0)
 -->
<!-- Title: rsync&#45;backup Pages: 1 -->
<svg width="523pt" height="608pt"
 viewBox="0.00 0.00 522.50 608.00" xmlns="http://www.w3.org/2000/svg" xmlns:xlink="http://www.w3.org/1999/xlink">
<g id="graph0" class="graph" transform="scale(1 1) rotate(0) translate(4 604)">
<title>rsync&#45;backup</title>
<polygon fill="white" stroke="transparent" points="-4,4 -4,-604 518.5,-604 518.5,4 -4,4"/>
<g id="clust1" class="cluster">
<title>cluster:tools</title>
<polygon fill="none" stroke="black" points="8,-65 8,-592 416,-592 416,-65 8,-65"/>
<text text-anchor="middle" x="212" y="-576.8" font-family="Times,serif" font-size="14.00">tools/</text>
</g>
<!-- backup -->
<g id="node1" class="node">
<title>backup</title>
<g id="a_node1"><a xlink:href="../#backup" xlink:title="backup" target="_parent">
<polygon fill="none" stroke="black" points="365,-561 309,-561 309,-557 305,-557 305,-553 309,-553 309,-533 305,-533 305,-529 309,-529 309,-525 365,-525 365,-561"/>
<polyline fill="none" stroke="black" points="309,-557 313,-557 313,-553 309,-553 "/>
<polyline fill="none" stroke="black" points="309,-533 313,-533 313,-529 309,-529 "/>
<text text-anchor="middle" x="337" y="-539.3" font-family="Times,serif" font-size="14.00">backup</text>
</a>
</g>
</g>
<!-- backup&#45;prepare -->
<g id="node2" class="node">
<title>backup&#45;prepare</title>
<g id="a_node2"><a xlink:href="../#backup-prepare" xlink:title="backup&#45;prepare" target="_parent">
<polygon fill="none" stroke="black" points="407.5,-182 306.5,-182 306.5,-178 302.5,-178 302.5,-174 306.5,-174 306.5,-154 302.5,-154 302.5,-150 306.5,-150 306.5,-146 407.5,-146 407.5,-182"/>
<polyline fill="none" stroke="black" points="306.5,-178 310.5,-178 310.5,-174 306.5,-174 "/>
<polyline fill="none" stroke="black" points="306.5,-154 310.5,-154 310.5,-150 306.5,-150 "/>
<text text-anchor="middle" x="357" y="-160.3" font-family="Times,serif" font-size="14.00">backup&#45;prepare</text>
</a>
</g>
</g>
<!-- backup&#45;&gt;backup&#45;prepare -->
<g id="edge1" class="edge">
<title>backup&#45;&gt;backup&#45;prepare</title>
<path fill="none" stroke="black" d="M352.14,-524.84C369.92,-504.7 397,-474 397,-474 397,-474 407,-457 407,-457 407,-457 407,-457 407,-236 407,-236 389.32,-210.89 374.98,-190.53"/>
<polygon fill="black" stroke="black" points="377.72,-188.35 369.1,-182.19 372,-192.38 377.72,-188.35"/>
<text text-anchor="middle" x="348.64" y="-513.64" font-family="Times,serif" font-size="14.00">1</text>
</g>
<!-- backup&#45;sources -->
<g id="node3" class="node">
<title>backup&#45;sources</title>
<g id="a_node3"><a xlink:href="../#backup-sources" xlink:title="backup&#45;sources" target="_parent">
<polygon fill="none" stroke="black" points="387.5,-474 286.5,-474 286.5,-470 282.5,-470 282.5,-466 286.5,-466 286.5,-446 282.5,-446 282.5,-442 286.5,-442 286.5,-438 387.5,-438 387.5,-474"/>
<polyline fill="none" stroke="black" points="286.5,-470 290.5,-470 290.5,-466 286.5,-466 "/>
<polyline fill="none" stroke="black" points="286.5,-446 290.5,-446 290.5,-442 286.5,-442 "/>
<text text-anchor="middle" x="337" y="-452.3" font-family="Times,serif" font-size="14.00">backup&#45;sources</text>
</a>
</g>
</g>
<!-- backup&#45;&gt;backup&#45;sources -->
<g id="edge2" class="edge">
<title>backup&#45;&gt;backup&#45;sources</title>
<path fill="none" stroke="black" d="M337,-524.8C337,-513.16 337,-497.55 337,-484.24"/>
<polygon fill="black" stroke="black" points="340.5,-484.18 337,-474.18 333.5,-484.18 340.5,-484.18"/>
<text text-anchor="middle" x="340.5" y="-495.8" font-family="Times,serif" font-size="14.00">2</text>
</g>
<!-- backup&#45;purge -->
<g id="node4" class="node">
<title>backup&#45;purge</title>
<g id="a_node4"><a xlink:href="../#backup-purge" xlink:title="backup&#45;purge" target="_parent">
<polygon fill="none" stroke="black" points="268,-474 176,-474 176,-470 172,-470 172,-466 176,-466 176,-446 172,-446 172,-442 176,-442 176,-438 268,-438 268,-474"/>
<polyline fill="none" stroke="black" points="176,-470 180,-470 180,-466 176,-466 "/>
<polyline fill="none" stroke="black" points="176,-446 180,-446 180,-442 176,-442 "/>
<text text-anchor="middle" x="222" y="-452.3" font-family="Times,serif" font-size="14.00">backup&#45;purge</text>
</a>
</g>
</g>
<!-- backup&#45;&gt;backup&#45;purge -->
<g id="edge3" class="edge">
<title>backup&#45;&gt;backup&#45;purge</title>
<path fill="none" stroke="black" d="M313.73,-524.8C296.35,-511.95 272.41,-494.26 253.34,-480.17"/>
<polygon fill="black" stroke="black" points="255.36,-477.3 245.24,-474.18 251.2,-482.93 255.36,-477.3"/>
<text text-anchor="middle" x="289.5" y="-495.8" font-family="Times,serif" font-size="14.00">3</text>
</g>
<!-- backup&#45;nice -->
<g id="node14" class="node">
<title>backup&#45;nice</title>
<g id="a_node14"><a xlink:href="../#backup-nice" xlink:title="backup&#45;nice" target="_parent">
<polygon fill="none" stroke="black" points="250.5,-109 167.5,-109 167.5,-105 163.5,-105 163.5,-101 167.5,-101 167.5,-81 163.5,-81 163.5,-77 167.5,-77 167.5,-73 250.5,-73 250.5,-109"/>
<polyline fill="none" stroke="black" points="167.5,-105 171.5,-105 171.5,-101 167.5,-101 "/>
<polyline fill="none" stroke="black" points="167.5,-81 171.5,-81 171.5,-77 167.5,-77 "/>
<text text-anchor="middle" x="209" y="-87.3" font-family="Times,serif" font-size="14.00">backup&#45;nice</text>
</a>
</g>
</g>
<!-- backup&#45;prepare&#45;&gt;backup&#45;nice -->
<g id="edge14" class="edge">
<title>backup&#45;prepare&#45;&gt;backup&#45;nice</title>
<path fill="none" stroke="black" d="M321.55,-145.99C301.2,-136.23 275.45,-123.88 253.71,-113.45"/>
<polygon fill="black" stroke="black" points="255.2,-110.28 244.67,-109.11 252.18,-116.59 255.2,-110.28"/>
</g>
<!-- backup&#45;create -->
<g id="node9" class="node">
<title>backup&#45;create</title>
<g id="a_node9"><a xlink:href="../#backup-create" xlink:title="backup&#45;create" target="_parent">
<polygon fill="none" stroke="black" points="363.5,-401 270.5,-401 270.5,-397 266.5,-397 266.5,-393 270.5,-393 270.5,-373 266.5,-373 266.5,-369 270.5,-369 270.5,-365 363.5,-365 363.5,-401"/>
<polyline fill="none" stroke="black" points="270.5,-397 274.5,-397 274.5,-393 270.5,-393 "/>
<polyline fill="none" stroke="black" points="270.5,-373 274.5,-373 274.5,-369 270.5,-369 "/>
<text text-anchor="middle" x="317" y="-379.3" font-family="Times,serif" font-size="14.00">backup&#45;create</text>
</a>
</g>
</g>
<!-- backup&#45;sources&#45;&gt;backup&#45;create -->
<g id="edge20" class="edge">
<title>backup&#45;sources&#45;&gt;backup&#45;create</title>
<path fill="none" stroke="black" d="M332.16,-437.81C329.87,-429.7 327.09,-419.84 324.54,-410.78"/>
<polygon fill="black" stroke="black" points="327.88,-409.71 321.8,-401.03 321.14,-411.6 327.88,-409.71"/>
</g>
<!-- backup&#45;clean&#45;tmp -->
<g id="node6" class="node">
<title>backup&#45;clean&#45;tmp</title>
<g id="a_node6"><a xlink:href="../#backup-clean-tmp" xlink:title="backup&#45;clean&#45;tmp" target="_parent">
<polygon fill="none" stroke="black" points="134.5,-182 19.5,-182 19.5,-178 15.5,-178 15.5,-174 19.5,-174 19.5,-154 15.5,-154 15.5,-150 19.5,-150 19.5,-146 134.5,-146 134.5,-182"/>
<polyline fill="none" stroke="black" points="19.5,-178 23.5,-178 23.5,-174 19.5,-174 "/>
<polyline fill="none" stroke="black" points="19.5,-154 23.5,-154 23.5,-150 19.5,-150 "/>
<text text-anchor="middle" x="77" y="-160.3" font-family="Times,serif" font-size="14.00">backup&#45;clean&#45;tmp</text>
</a>
</g>
</g>
<!-- backup&#45;purge&#45;&gt;backup&#45;clean&#45;tmp -->
<g id="edge15" class="edge">
<title>backup&#45;purge&#45;&gt;backup&#45;clean&#45;tmp</title>
<path fill="none" stroke="black" d="M203.52,-437.87C166.13,-403.21 85,-328 85,-328 85,-328 78,-255 78,-255 78,-255 76,-201 76,-201 76,-201 76,-200 76,-200 76,-200 76.09,-196.82 76.22,-192.37"/>
<polygon fill="black" stroke="black" points="79.72,-192.19 76.51,-182.09 72.73,-191.99 79.72,-192.19"/>
</g>
<!-- on_ac_power -->
<g id="node18" class="node">
<title>on_ac_power</title>
<polygon fill="none" stroke="black" points="514.5,-401 425.5,-401 425.5,-397 421.5,-397 421.5,-393 425.5,-393 425.5,-373 421.5,-373 421.5,-369 425.5,-369 425.5,-365 514.5,-365 514.5,-401"/>
<polyline fill="none" stroke="black" points="425.5,-397 429.5,-397 429.5,-393 425.5,-393 "/>
<polyline fill="none" stroke="black" points="425.5,-373 429.5,-373 429.5,-369 425.5,-369 "/>
<text text-anchor="middle" x="470" y="-379.3" font-family="Times,serif" font-size="14.00">on_ac_power</text>
</g>
<!-- backup&#45;purge&#45;&gt;on_ac_power -->
<g id="edge24" class="edge">
<title>backup&#45;purge&#45;&gt;on_ac_power</title>
<path fill="none" stroke="black" stroke-dasharray="5,2" d="M268.25,-440.96C274.05,-439.2 278,-438 278,-438 278,-438 381.92,-410.92 415.31,-401.96"/>
<polygon fill="black" stroke="black" points="416.64,-405.22 425.35,-399.18 414.78,-398.47 416.64,-405.22"/>
</g>
<!-- backup&#45;copy -->
<g id="node5" class="node">
<title>backup&#45;copy</title>
<g id="a_node5"><a xlink:href="../#backup-copy" xlink:title="backup&#45;copy" target="_parent">
<polygon fill="none" stroke="black" points="103.5,-401 16.5,-401 16.5,-397 12.5,-397 12.5,-393 16.5,-393 16.5,-373 12.5,-373 12.5,-369 16.5,-369 16.5,-365 103.5,-365 103.5,-401"/>
<polyline fill="none" stroke="black" points="16.5,-397 20.5,-397 20.5,-393 16.5,-393 "/>
<polyline fill="none" stroke="black" points="16.5,-373 20.5,-373 20.5,-369 16.5,-369 "/>
<text text-anchor="middle" x="60" y="-379.3" font-family="Times,serif" font-size="14.00">backup&#45;copy</text>
</a>
</g>
</g>
<!-- backup&#45;copy&#45;&gt;backup&#45;clean&#45;tmp -->
<g id="edge4" class="edge">
<title>backup&#45;copy&#45;&gt;backup&#45;clean&#45;tmp</title>
<path fill="none" stroke="black" d="M59.05,-364.91C58.17,-349.09 57,-328 57,-328 57,-328 57,-200 57,-200 57,-200 59.22,-196.11 62.18,-190.93"/>
<polygon fill="black" stroke="black" points="65.31,-192.51 67.23,-182.09 59.23,-189.04 65.31,-192.51"/>
</g>
<!-- backup&#45;copy&#45;rsync -->
<g id="node7" class="node">
<title>backup&#45;copy&#45;rsync</title>
<g id="a_node7"><a xlink:href="../#backup-copy-rsync" xlink:title="backup&#45;copy&#45;rsync" target="_parent">
<polygon fill="none" stroke="black" points="222.5,-328 101.5,-328 101.5,-324 97.5,-324 97.5,-320 101.5,-320 101.5,-300 97.5,-300 97.5,-296 101.5,-296 101.5,-292 222.5,-292 222.5,-328"/>
<polyline fill="none" stroke="black" points="101.5,-324 105.5,-324 105.5,-320 101.5,-320 "/>
<polyline fill="none" stroke="black" points="101.5,-300 105.5,-300 105.5,-296 101.5,-296 "/>
<text text-anchor="middle" x="162" y="-306.3" font-family="Times,serif" font-size="14.00">backup&#45;copy&#45;rsync</text>
</a>
</g>
</g>
<!-- backup&#45;copy&#45;&gt;backup&#45;copy&#45;rsync -->
<g id="edge5" class="edge">
<title>backup&#45;copy&#45;&gt;backup&#45;copy&#45;rsync</title>
<path fill="none" stroke="black" d="M84.43,-364.99C97.83,-355.67 114.63,-343.97 129.16,-333.86"/>
<polygon fill="black" stroke="black" points="131.21,-336.7 137.41,-328.11 127.21,-330.95 131.21,-336.7"/>
</g>
<!-- backup&#45;rsync -->
<g id="node8" class="node">
<title>backup&#45;rsync</title>
<g id="a_node8"><a xlink:href="../#backup-rsync" xlink:title="backup&#45;rsync" target="_parent">
<polygon fill="none" stroke="black" points="277,-255 187,-255 187,-251 183,-251 183,-247 187,-247 187,-227 183,-227 183,-223 187,-223 187,-219 277,-219 277,-255"/>
<polyline fill="none" stroke="black" points="187,-251 191,-251 191,-247 187,-247 "/>
<polyline fill="none" stroke="black" points="187,-227 191,-227 191,-223 187,-223 "/>
<text text-anchor="middle" x="232" y="-233.3" font-family="Times,serif" font-size="14.00">backup&#45;rsync</text>
</a>
</g>
</g>
<!-- backup&#45;copy&#45;rsync&#45;&gt;backup&#45;rsync -->
<g id="edge6" class="edge">
<title>backup&#45;copy&#45;rsync&#45;&gt;backup&#45;rsync</title>
<path fill="none" stroke="black" d="M178.95,-291.81C187.72,-282.92 198.57,-271.91 208.17,-262.17"/>
<polygon fill="black" stroke="black" points="210.68,-264.61 215.21,-255.03 205.7,-259.69 210.68,-264.61"/>
</g>
<!-- backup&#45;rsync&#45;&gt;backup&#45;prepare -->
<g id="edge19" class="edge">
<title>backup&#45;rsync&#45;&gt;backup&#45;prepare</title>
<path fill="none" stroke="black" stroke-dasharray="5,2" d="M261.94,-218.99C278.67,-209.49 299.72,-197.54 317.75,-187.29"/>
<polygon fill="black" stroke="black" points="319.9,-190.1 326.87,-182.11 316.45,-184.01 319.9,-190.1"/>
</g>
<!-- backup&#45;rsync&#45;&gt;backup&#45;clean&#45;tmp -->
<g id="edge16" class="edge">
<title>backup&#45;rsync&#45;&gt;backup&#45;clean&#45;tmp</title>
<path fill="none" stroke="black" stroke-dasharray="5,2" d="M192.94,-218.91C172.63,-210.03 152,-201 152,-201 152,-201 137.8,-194.19 121.76,-186.49"/>
<polygon fill="black" stroke="black" points="123.27,-183.33 112.74,-182.16 120.24,-189.64 123.27,-183.33"/>
</g>
<!-- backup&#45;make&#45;tag -->
<g id="node11" class="node">
<title>backup&#45;make&#45;tag</title>
<g id="a_node11"><a xlink:href="../#backup-make-tag" xlink:title="backup&#45;make&#45;tag" target="_parent">
<polygon fill="none" stroke="black" points="288,-182 176,-182 176,-178 172,-178 172,-174 176,-174 176,-154 172,-154 172,-150 176,-150 176,-146 288,-146 288,-182"/>
<polyline fill="none" stroke="black" points="176,-178 180,-178 180,-174 176,-174 "/>
<polyline fill="none" stroke="black" points="176,-154 180,-154 180,-150 176,-150 "/>
<text text-anchor="middle" x="232" y="-160.3" font-family="Times,serif" font-size="14.00">backup&#45;make&#45;tag</text>
</a>
</g>
</g>
<!-- backup&#45;rsync&#45;&gt;backup&#45;make&#45;tag -->
<g id="edge17" class="edge">
<title>backup&#45;rsync&#45;&gt;backup&#45;make&#45;tag</title>
<path fill="none" stroke="black" stroke-dasharray="5,2" d="M232,-218.81C232,-210.79 232,-201.05 232,-192.07"/>
<polygon fill="black" stroke="black" points="235.5,-192.03 232,-182.03 228.5,-192.03 235.5,-192.03"/>
</g>
<!-- backup&#45;rsync&#45;&gt;backup&#45;nice -->
<g id="edge18" class="edge">
<title>backup&#45;rsync&#45;&gt;backup&#45;nice</title>
<path fill="none" stroke="black" d="M211.43,-218.91C192.39,-203.09 167,-182 167,-182 167,-182 167,-146 167,-146 167,-146 178.46,-131.26 189.41,-117.18"/>
<polygon fill="black" stroke="black" points="192.33,-119.13 195.71,-109.09 186.81,-114.83 192.33,-119.13"/>
</g>
<!-- rsync -->
<g id="node19" class="node">
<title>rsync</title>
<polygon fill="none" stroke="black" points="480,-182 426,-182 426,-178 422,-178 422,-174 426,-174 426,-154 422,-154 422,-150 426,-150 426,-146 480,-146 480,-182"/>
<polyline fill="none" stroke="black" points="426,-178 430,-178 430,-174 426,-174 "/>
<polyline fill="none" stroke="black" points="426,-154 430,-154 430,-150 426,-150 "/>
<text text-anchor="middle" x="453" y="-160.3" font-family="Times,serif" font-size="14.00">rsync</text>
</g>
<!-- backup&#45;rsync&#45;&gt;rsync -->
<g id="edge25" class="edge">
<title>backup&#45;rsync&#45;&gt;rsync</title>
<path fill="none" stroke="black" d="M277.03,-223.07C323.09,-209.84 390.91,-190.36 416.13,-182.37"/>
<polygon fill="black" stroke="black" points="417.44,-185.62 425.75,-179.04 415.15,-179 417.44,-185.62"/>
</g>
<!-- backup&#45;create&#45;&gt;backup&#45;clean&#45;tmp -->
<g id="edge7" class="edge">
<title>backup&#45;create&#45;&gt;backup&#45;clean&#45;tmp</title>
<path fill="none" stroke="black" d="M270.31,-370.75C204.67,-354.92 93,-328 93,-328 93,-328 84.21,-238.48 79.66,-192.12"/>
<polygon fill="black" stroke="black" points="83.14,-191.75 78.68,-182.14 76.18,-192.43 83.14,-191.75"/>
</g>
<!-- backup&#45;create&#45;rsync -->
<g id="node10" class="node">
<title>backup&#45;create&#45;rsync</title>
<g id="a_node10"><a xlink:href="../#backup-create-rsync" xlink:title="backup&#45;create&#45;rsync" target="_parent">
<polygon fill="none" stroke="black" points="367.5,-328 240.5,-328 240.5,-324 236.5,-324 236.5,-320 240.5,-320 240.5,-300 236.5,-300 236.5,-296 240.5,-296 240.5,-292 367.5,-292 367.5,-328"/>
<polyline fill="none" stroke="black" points="240.5,-324 244.5,-324 244.5,-320 240.5,-320 "/>
<polyline fill="none" stroke="black" points="240.5,-300 244.5,-300 244.5,-296 240.5,-296 "/>
<text text-anchor="middle" x="304" y="-306.3" font-family="Times,serif" font-size="14.00">backup&#45;create&#45;rsync</text>
</a>
</g>
</g>
<!-- backup&#45;create&#45;&gt;backup&#45;create&#45;rsync -->
<g id="edge8" class="edge">
<title>backup&#45;create&#45;&gt;backup&#45;create&#45;rsync</title>
<path fill="none" stroke="black" d="M313.85,-364.81C312.38,-356.79 310.6,-347.05 308.96,-338.07"/>
<polygon fill="black" stroke="black" points="312.36,-337.23 307.12,-328.03 305.48,-338.5 312.36,-337.23"/>
</g>
<!-- backup&#45;create&#45;&gt;backup&#45;make&#45;tag -->
<g id="edge9" class="edge">
<title>backup&#45;create&#45;&gt;backup&#45;make&#45;tag</title>
<path fill="none" stroke="black" d="M335.98,-364.91C353.56,-349.09 377,-328 377,-328 377,-328 377,-292 377,-292 377,-292 301.22,-225.62 259.22,-188.84"/>
<polygon fill="black" stroke="black" points="261.38,-186.08 251.56,-182.13 256.77,-191.35 261.38,-186.08"/>
</g>
<!-- backup&#45;create&#45;rsync&#45;&gt;backup&#45;rsync -->
<g id="edge10" class="edge">
<title>backup&#45;create&#45;rsync&#45;&gt;backup&#45;rsync</title>
<path fill="none" stroke="black" d="M286.57,-291.81C277.55,-282.92 266.39,-271.91 256.51,-262.17"/>
<polygon fill="black" stroke="black" points="258.85,-259.56 249.27,-255.03 253.93,-264.54 258.85,-259.56"/>
</g>
<!-- backup&#45;mirror -->
<g id="node12" class="node">
<title>backup&#45;mirror</title>
<g id="a_node12"><a xlink:href="../#backup-mirror" xlink:title="backup&#45;mirror" target="_parent">
<polygon fill="none" stroke="black" points="203.5,-561 106.5,-561 106.5,-557 102.5,-557 102.5,-553 106.5,-553 106.5,-533 102.5,-533 102.5,-529 106.5,-529 106.5,-525 203.5,-525 203.5,-561"/>
<polyline fill="none" stroke="black" points="106.5,-557 110.5,-557 110.5,-553 106.5,-553 "/>
<polyline fill="none" stroke="black" points="106.5,-533 110.5,-533 110.5,-529 106.5,-529 "/>
<text text-anchor="middle" x="155" y="-539.3" font-family="Times,serif" font-size="14.00">backup&#45;mirror</text>
</a>
</g>
</g>
<!-- backup&#45;mirror&#45;&gt;backup&#45;purge -->
<g id="edge12" class="edge">
<title>backup&#45;mirror&#45;&gt;backup&#45;purge</title>
<path fill="none" stroke="black" d="M168.56,-524.8C178.18,-512.59 191.27,-495.99 202.08,-482.28"/>
<polygon fill="black" stroke="black" points="205.02,-484.2 208.46,-474.18 199.52,-479.86 205.02,-484.2"/>
<text text-anchor="middle" x="195.5" y="-495.8" font-family="Times,serif" font-size="14.00">2</text>
</g>
<!-- backup&#45;mirror&#45;sources -->
<g id="node13" class="node">
<title>backup&#45;mirror&#45;sources</title>
<g id="a_node13"><a xlink:href="../#backup-mirror-sources" xlink:title="backup&#45;mirror&#45;sources" target="_parent">
<polygon fill="none" stroke="black" points="157.5,-474 16.5,-474 16.5,-470 12.5,-470 12.5,-466 16.5,-466 16.5,-446 12.5,-446 12.5,-442 16.5,-442 16.5,-438 157.5,-438 157.5,-474"/>
<polyline fill="none" stroke="black" points="16.5,-470 20.5,-470 20.5,-466 16.5,-466 "/>
<polyline fill="none" stroke="black" points="16.5,-446 20.5,-446 20.5,-442 16.5,-442 "/>
<text text-anchor="middle" x="87" y="-452.3" font-family="Times,serif" font-size="14.00">backup&#45;mirror&#45;sources</text>
</a>
</g>
</g>
<!-- backup&#45;mirror&#45;&gt;backup&#45;mirror&#45;sources -->
<g id="edge11" class="edge">
<title>backup&#45;mirror&#45;&gt;backup&#45;mirror&#45;sources</title>
<path fill="none" stroke="black" d="M141.24,-524.8C131.47,-512.59 118.19,-495.99 107.22,-482.28"/>
<polygon fill="black" stroke="black" points="109.72,-479.8 100.74,-474.18 104.25,-484.17 109.72,-479.8"/>
<text text-anchor="middle" x="128.5" y="-495.8" font-family="Times,serif" font-size="14.00">1</text>
</g>
<!-- backup&#45;mirror&#45;sources&#45;&gt;backup&#45;copy -->
<g id="edge13" class="edge">
<title>backup&#45;mirror&#45;sources&#45;&gt;backup&#45;copy</title>
<path fill="none" stroke="black" d="M80.46,-437.81C77.35,-429.62 73.55,-419.62 70.07,-410.48"/>
<polygon fill="black" stroke="black" points="73.3,-409.13 66.48,-401.03 66.76,-411.62 73.3,-409.13"/>
</g>
<!-- ionice -->
<g id="node15" class="node">
<title>ionice</title>
<polygon fill="none" stroke="black" points="164,-36 110,-36 110,-32 106,-32 106,-28 110,-28 110,-8 106,-8 106,-4 110,-4 110,0 164,0 164,-36"/>
<polyline fill="none" stroke="black" points="110,-32 114,-32 114,-28 110,-28 "/>
<polyline fill="none" stroke="black" points="110,-8 114,-8 114,-4 110,-4 "/>
<text text-anchor="middle" x="137" y="-14.3" font-family="Times,serif" font-size="14.00">ionice</text>
</g>
<!-- backup&#45;nice&#45;&gt;ionice -->
<g id="edge21" class="edge">
<title>backup&#45;nice&#45;&gt;ionice</title>
<path fill="none" stroke="black" stroke-dasharray="5,2" d="M191.57,-72.81C182.55,-63.92 171.39,-52.91 161.51,-43.17"/>
<polygon fill="black" stroke="black" points="163.85,-40.56 154.27,-36.03 158.93,-45.54 163.85,-40.56"/>
</g>
<!-- nice -->
<g id="node16" class="node">
<title>nice</title>
<polygon fill="none" stroke="black" points="236,-36 182,-36 182,-32 178,-32 178,-28 182,-28 182,-8 178,-8 178,-4 182,-4 182,0 236,0 236,-36"/>
<polyline fill="none" stroke="black" points="182,-32 186,-32 186,-28 182,-28 "/>
<polyline fill="none" stroke="black" points="182,-8 186,-8 186,-4 182,-4 "/>
<text text-anchor="middle" x="209" y="-14.3" font-family="Times,serif" font-size="14.00">nice</text>
</g>
<!-- backup&#45;nice&#45;&gt;nice -->
<g id="edge22" class="edge">
<title>backup&#45;nice&#45;&gt;nice</title>
<path fill="none" stroke="black" stroke-dasharray="5,2" d="M209,-72.81C209,-64.79 209,-55.05 209,-46.07"/>
<polygon fill="black" stroke="black" points="212.5,-46.03 209,-36.03 205.5,-46.03 212.5,-46.03"/>
</g>
<!-- nocache -->
<g id="node17" class="node">
<title>nocache</title>
<polygon fill="none" stroke="black" points="315.5,-36 254.5,-36 254.5,-32 250.5,-32 250.5,-28 254.5,-28 254.5,-8 250.5,-8 250.5,-4 254.5,-4 254.5,0 315.5,0 315.5,-36"/>
<polyline fill="none" stroke="black" points="254.5,-32 258.5,-32 258.5,-28 254.5,-28 "/>
<polyline fill="none" stroke="black" points="254.5,-8 258.5,-8 258.5,-4 254.5,-4 "/>
<text text-anchor="middle" x="285" y="-14.3" font-family="Times,serif" font-size="14.00">nocache</text>
</g>
<!-- backup&#45;nice&#45;&gt;nocache -->
<g id="edge23" class="edge">
<title>backup&#45;nice&#45;&gt;nocache</title>
<path fill="none" stroke="black" stroke-dasharray="5,2" d="M227.4,-72.81C237.01,-63.83 248.93,-52.69 259.43,-42.89"/>
<polygon fill="black" stroke="black" points="261.85,-45.41 266.77,-36.03 257.08,-40.3 261.85,-45.41"/>
</g>
<!-- ssh -->
<g id="node20" class="node">
<title>ssh</title>
<polygon fill="none" stroke="black" points="480,-109 426,-109 426,-105 422,-105 422,-101 426,-101 426,-81 422,-81 422,-77 426,-77 426,-73 480,-73 480,-109"/>
<polyline fill="none" stroke="black" points="426,-105 430,-105 430,-101 426,-101 "/>
<polyline fill="none" stroke="black" points="426,-81 430,-81 430,-77 426,-77 "/>
<text text-anchor="middle" x="453" y="-87.3" font-family="Times,serif" font-size="14.00">ssh</text>
</g>
<!-- rsync&#45;&gt;ssh -->
<g id="edge26" class="edge">
<title>rsync&#45;&gt;ssh</title>
<path fill="none" stroke="black" stroke-dasharray="5,2" d="M453,-145.81C453,-137.79 453,-128.05 453,-119.07"/>
<polygon fill="black" stroke="black" points="456.5,-119.03 453,-109.03 449.5,-119.03 456.5,-119.03"/>
</g>
</g>
</svg>
