<?xml version="1.0" encoding="UTF-8" standalone="no"?>
<!DOCTYPE svg PUBLIC "-//W3C//DTD SVG 1.1//EN"
 "http://www.w3.org/Graphics/SVG/1.1/DTD/svg11.dtd">
<!-- Generated by graphviz version 2.43.0 (0)
 -->
<!-- Title: rsync&#45;backup Pages: 1 -->
<svg width="569pt" height="681pt"
 viewBox="0.00 0.00 569.00 681.00" xmlns="http://www.w3.org/2000/svg" xmlns:xlink="http://www.w3.org/1999/xlink">
<g id="graph0" class="graph" transform="scale(1 1) rotate(0) translate(4 677)">
<title>rsync&#45;backup</title>
<polygon fill="white" stroke="transparent" points="-4,4 -4,-677 565,-677 565,4 -4,4"/>
<g id="clust1" class="cluster">
<title>cluster:tools</title>
<polygon fill="none" stroke="black" points="46,-138 46,-665 553,-665 553,-138 46,-138"/>
<text text-anchor="middle" x="299.5" y="-649.8" font-family="Times,serif" font-size="14.00">tools/</text>
</g>
<!-- backup -->
<g id="node1" class="node">
<title>backup</title>
<g id="a_node1"><a xlink:href="../#backup" xlink:title="backup" target="_parent">
<polygon fill="none" stroke="black" points="252,-634 196,-634 196,-630 192,-630 192,-626 196,-626 196,-606 192,-606 192,-602 196,-602 196,-598 252,-598 252,-634"/>
<polyline fill="none" stroke="black" points="196,-630 200,-630 200,-626 196,-626 "/>
<polyline fill="none" stroke="black" points="196,-606 200,-606 200,-602 196,-602 "/>
<text text-anchor="middle" x="224" y="-612.3" font-family="Times,serif" font-size="14.00">backup</text>
</a>
</g>
</g>
<!-- backup&#45;prepare -->
<g id="node2" class="node">
<title>backup&#45;prepare</title>
<g id="a_node2"><a xlink:href="../#backup-prepare" xlink:title="backup&#45;prepare" target="_parent">
<polygon fill="none" stroke="black" points="155.5,-547 54.5,-547 54.5,-543 50.5,-543 50.5,-539 54.5,-539 54.5,-519 50.5,-519 50.5,-515 54.5,-515 54.5,-511 155.5,-511 155.5,-547"/>
<polyline fill="none" stroke="black" points="54.5,-543 58.5,-543 58.5,-539 54.5,-539 "/>
<polyline fill="none" stroke="black" points="54.5,-519 58.5,-519 58.5,-515 54.5,-515 "/>
<text text-anchor="middle" x="105" y="-525.3" font-family="Times,serif" font-size="14.00">backup&#45;prepare</text>
</a>
</g>
</g>
<!-- backup&#45;&gt;backup&#45;prepare -->
<g id="edge1" class="edge">
<title>backup&#45;&gt;backup&#45;prepare</title>
<path fill="none" stroke="black" d="M199.92,-597.8C181.93,-584.95 157.16,-567.26 137.43,-553.17"/>
<polygon fill="black" stroke="black" points="139.22,-550.14 129.05,-547.18 135.15,-555.84 139.22,-550.14"/>
<text text-anchor="middle" x="174.5" y="-568.8" font-family="Times,serif" font-size="14.00">1</text>
</g>
<!-- backup&#45;sources -->
<g id="node3" class="node">
<title>backup&#45;sources</title>
<g id="a_node3"><a xlink:href="../#backup-sources" xlink:title="backup&#45;sources" target="_parent">
<polygon fill="none" stroke="black" points="274.5,-547 173.5,-547 173.5,-543 169.5,-543 169.5,-539 173.5,-539 173.5,-519 169.5,-519 169.5,-515 173.5,-515 173.5,-511 274.5,-511 274.5,-547"/>
<polyline fill="none" stroke="black" points="173.5,-543 177.5,-543 177.5,-539 173.5,-539 "/>
<polyline fill="none" stroke="black" points="173.5,-519 177.5,-519 177.5,-515 173.5,-515 "/>
<text text-anchor="middle" x="224" y="-525.3" font-family="Times,serif" font-size="14.00">backup&#45;sources</text>
</a>
</g>
</g>
<!-- backup&#45;&gt;backup&#45;sources -->
<g id="edge2" class="edge">
<title>backup&#45;&gt;backup&#45;sources</title>
<path fill="none" stroke="black" d="M224,-597.8C224,-586.16 224,-570.55 224,-557.24"/>
<polygon fill="black" stroke="black" points="227.5,-557.18 224,-547.18 220.5,-557.18 227.5,-557.18"/>
<text text-anchor="middle" x="227.5" y="-568.8" font-family="Times,serif" font-size="14.00">2</text>
</g>
<!-- backup&#45;purge -->
<g id="node4" class="node">
<title>backup&#45;purge</title>
<g id="a_node4"><a xlink:href="../#backup-purge" xlink:title="backup&#45;purge" target="_parent">
<polygon fill="none" stroke="black" points="385,-547 293,-547 293,-543 289,-543 289,-539 293,-539 293,-519 289,-519 289,-515 293,-515 293,-511 385,-511 385,-547"/>
<polyline fill="none" stroke="black" points="293,-543 297,-543 297,-539 293,-539 "/>
<polyline fill="none" stroke="black" points="293,-519 297,-519 297,-515 293,-515 "/>
<text text-anchor="middle" x="339" y="-525.3" font-family="Times,serif" font-size="14.00">backup&#45;purge</text>
</a>
</g>
</g>
<!-- backup&#45;&gt;backup&#45;purge -->
<g id="edge3" class="edge">
<title>backup&#45;&gt;backup&#45;purge</title>
<path fill="none" stroke="black" d="M247.27,-597.8C264.65,-584.95 288.59,-567.26 307.66,-553.17"/>
<polygon fill="black" stroke="black" points="309.8,-555.93 315.76,-547.18 305.64,-550.3 309.8,-555.93"/>
<text text-anchor="middle" x="291.5" y="-568.8" font-family="Times,serif" font-size="14.00">3</text>
</g>
<!-- backup&#45;nice -->
<g id="node12" class="node">
<title>backup&#45;nice</title>
<g id="a_node12"><a xlink:href="../#backup-nice" xlink:title="backup&#45;nice" target="_parent">
<polygon fill="none" stroke="black" points="146.5,-182 63.5,-182 63.5,-178 59.5,-178 59.5,-174 63.5,-174 63.5,-154 59.5,-154 59.5,-150 63.5,-150 63.5,-146 146.5,-146 146.5,-182"/>
<polyline fill="none" stroke="black" points="63.5,-178 67.5,-178 67.5,-174 63.5,-174 "/>
<polyline fill="none" stroke="black" points="63.5,-154 67.5,-154 67.5,-150 63.5,-150 "/>
<text text-anchor="middle" x="105" y="-160.3" font-family="Times,serif" font-size="14.00">backup&#45;nice</text>
</a>
</g>
</g>
<!-- backup&#45;prepare&#45;&gt;backup&#45;nice -->
<g id="edge12" class="edge">
<title>backup&#45;prepare&#45;&gt;backup&#45;nice</title>
<path fill="none" stroke="black" d="M105,-510.81C105,-489.8 105,-457 105,-457 105,-457 105,-457 105,-236 105,-236 105,-212.43 105,-192.45"/>
<polygon fill="black" stroke="black" points="108.5,-192.19 105,-182.19 101.5,-192.19 108.5,-192.19"/>
</g>
<!-- backup&#45;create -->
<g id="node7" class="node">
<title>backup&#45;create</title>
<g id="a_node7"><a xlink:href="../#backup-create" xlink:title="backup&#45;create" target="_parent">
<polygon fill="none" stroke="black" points="270.5,-401 177.5,-401 177.5,-397 173.5,-397 173.5,-393 177.5,-393 177.5,-373 173.5,-373 173.5,-369 177.5,-369 177.5,-365 270.5,-365 270.5,-401"/>
<polyline fill="none" stroke="black" points="177.5,-397 181.5,-397 181.5,-393 177.5,-393 "/>
<polyline fill="none" stroke="black" points="177.5,-373 181.5,-373 181.5,-369 177.5,-369 "/>
<text text-anchor="middle" x="224" y="-379.3" font-family="Times,serif" font-size="14.00">backup&#45;create</text>
</a>
</g>
</g>
<!-- backup&#45;sources&#45;&gt;backup&#45;create -->
<g id="edge14" class="edge">
<title>backup&#45;sources&#45;&gt;backup&#45;create</title>
<path fill="none" stroke="black" d="M224,-510.92C224,-486.34 224,-440.75 224,-411.43"/>
<polygon fill="black" stroke="black" points="227.5,-411.06 224,-401.06 220.5,-411.06 227.5,-411.06"/>
</g>
<!-- on_ac_power -->
<g id="node16" class="node">
<title>on_ac_power</title>
<polygon fill="none" stroke="black" points="481.5,-109 392.5,-109 392.5,-105 388.5,-105 388.5,-101 392.5,-101 392.5,-81 388.5,-81 388.5,-77 392.5,-77 392.5,-73 481.5,-73 481.5,-109"/>
<polyline fill="none" stroke="black" points="392.5,-105 396.5,-105 396.5,-101 392.5,-101 "/>
<polyline fill="none" stroke="black" points="392.5,-81 396.5,-81 396.5,-77 392.5,-77 "/>
<text text-anchor="middle" x="437" y="-87.3" font-family="Times,serif" font-size="14.00">on_ac_power</text>
</g>
<!-- backup&#45;purge&#45;&gt;on_ac_power -->
<g id="edge18" class="edge">
<title>backup&#45;purge&#45;&gt;on_ac_power</title>
<path fill="none" stroke="black" stroke-dasharray="5,2" d="M362.72,-510.81C391.73,-489.8 437,-457 437,-457 437,-457 437,-457 437,-163 437,-163 437,-139.43 437,-119.45"/>
<polygon fill="black" stroke="black" points="440.5,-119.19 437,-109.19 433.5,-119.19 440.5,-119.19"/>
</g>
<!-- backup&#45;copy -->
<g id="node5" class="node">
<title>backup&#45;copy</title>
<g id="a_node5"><a xlink:href="../#backup-copy" xlink:title="backup&#45;copy" target="_parent">
<polygon fill="none" stroke="black" points="391.5,-474 304.5,-474 304.5,-470 300.5,-470 300.5,-466 304.5,-466 304.5,-446 300.5,-446 300.5,-442 304.5,-442 304.5,-438 391.5,-438 391.5,-474"/>
<polyline fill="none" stroke="black" points="304.5,-470 308.5,-470 308.5,-466 304.5,-466 "/>
<polyline fill="none" stroke="black" points="304.5,-446 308.5,-446 308.5,-442 304.5,-442 "/>
<text text-anchor="middle" x="348" y="-452.3" font-family="Times,serif" font-size="14.00">backup&#45;copy</text>
</a>
</g>
</g>
<!-- backup&#45;copy&#45;rsync -->
<g id="node6" class="node">
<title>backup&#45;copy&#45;rsync</title>
<g id="a_node6"><a xlink:href="../#backup-copy-rsync" xlink:title="backup&#45;copy&#45;rsync" target="_parent">
<polygon fill="none" stroke="black" points="408.5,-328 287.5,-328 287.5,-324 283.5,-324 283.5,-320 287.5,-320 287.5,-300 283.5,-300 283.5,-296 287.5,-296 287.5,-292 408.5,-292 408.5,-328"/>
<polyline fill="none" stroke="black" points="287.5,-324 291.5,-324 291.5,-320 287.5,-320 "/>
<polyline fill="none" stroke="black" points="287.5,-300 291.5,-300 291.5,-296 287.5,-296 "/>
<text text-anchor="middle" x="348" y="-306.3" font-family="Times,serif" font-size="14.00">backup&#45;copy&#45;rsync</text>
</a>
</g>
</g>
<!-- backup&#45;copy&#45;&gt;backup&#45;copy&#45;rsync -->
<g id="edge4" class="edge">
<title>backup&#45;copy&#45;&gt;backup&#45;copy&#45;rsync</title>
<path fill="none" stroke="black" d="M348,-437.92C348,-413.34 348,-367.75 348,-338.43"/>
<polygon fill="black" stroke="black" points="351.5,-338.06 348,-328.06 344.5,-338.06 351.5,-338.06"/>
</g>
<!-- backup&#45;copy&#45;&gt;backup&#45;create -->
<!-- backup&#45;rsync -->
<g id="node8" class="node">
<title>backup&#45;rsync</title>
<g id="a_node8"><a xlink:href="../#backup-rsync" xlink:title="backup&#45;rsync" target="_parent">
<polygon fill="none" stroke="black" points="267,-255 177,-255 177,-251 173,-251 173,-247 177,-247 177,-227 173,-227 173,-223 177,-223 177,-219 267,-219 267,-255"/>
<polyline fill="none" stroke="black" points="177,-251 181,-251 181,-247 177,-247 "/>
<polyline fill="none" stroke="black" points="177,-227 181,-227 181,-223 177,-223 "/>
<text text-anchor="middle" x="222" y="-233.3" font-family="Times,serif" font-size="14.00">backup&#45;rsync</text>
</a>
</g>
</g>
<!-- backup&#45;copy&#45;rsync&#45;&gt;backup&#45;rsync -->
<g id="edge6" class="edge">
<title>backup&#45;copy&#45;rsync&#45;&gt;backup&#45;rsync</title>
<path fill="none" stroke="black" d="M317.82,-291.99C300.96,-282.49 279.74,-270.54 261.56,-260.29"/>
<polygon fill="black" stroke="black" points="262.8,-256.97 252.37,-255.11 259.36,-263.07 262.8,-256.97"/>
</g>
<!-- backup&#45;create&#45;rsync -->
<g id="node9" class="node">
<title>backup&#45;create&#45;rsync</title>
<g id="a_node9"><a xlink:href="../#backup-create-rsync" xlink:title="backup&#45;create&#45;rsync" target="_parent">
<polygon fill="none" stroke="black" points="269.5,-328 142.5,-328 142.5,-324 138.5,-324 138.5,-320 142.5,-320 142.5,-300 138.5,-300 138.5,-296 142.5,-296 142.5,-292 269.5,-292 269.5,-328"/>
<polyline fill="none" stroke="black" points="142.5,-324 146.5,-324 146.5,-320 142.5,-320 "/>
<polyline fill="none" stroke="black" points="142.5,-300 146.5,-300 146.5,-296 142.5,-296 "/>
<text text-anchor="middle" x="206" y="-306.3" font-family="Times,serif" font-size="14.00">backup&#45;create&#45;rsync</text>
</a>
</g>
</g>
<!-- backup&#45;create&#45;&gt;backup&#45;create&#45;rsync -->
<g id="edge7" class="edge">
<title>backup&#45;create&#45;&gt;backup&#45;create&#45;rsync</title>
<path fill="none" stroke="black" d="M219.64,-364.81C217.59,-356.7 215.09,-346.84 212.79,-337.78"/>
<polygon fill="black" stroke="black" points="216.17,-336.86 210.32,-328.03 209.38,-338.58 216.17,-336.86"/>
</g>
<!-- backup&#45;rsync&#45;&gt;backup&#45;nice -->
<g id="edge13" class="edge">
<title>backup&#45;rsync&#45;&gt;backup&#45;nice</title>
<path fill="none" stroke="black" d="M193.98,-218.99C178.46,-209.58 158.98,-197.76 142.2,-187.57"/>
<polygon fill="black" stroke="black" points="143.57,-184.31 133.2,-182.11 139.93,-190.29 143.57,-184.31"/>
</g>
<!-- rsync -->
<g id="node17" class="node">
<title>rsync</title>
<polygon fill="none" stroke="black" points="278,-109 224,-109 224,-105 220,-105 220,-101 224,-101 224,-81 220,-81 220,-77 224,-77 224,-73 278,-73 278,-109"/>
<polyline fill="none" stroke="black" points="224,-105 228,-105 228,-101 224,-101 "/>
<polyline fill="none" stroke="black" points="224,-81 228,-81 228,-77 224,-77 "/>
<text text-anchor="middle" x="251" y="-87.3" font-family="Times,serif" font-size="14.00">rsync</text>
</g>
<!-- backup&#45;rsync&#45;&gt;rsync -->
<g id="edge19" class="edge">
<title>backup&#45;rsync&#45;&gt;rsync</title>
<path fill="none" stroke="black" d="M225.44,-218.92C230.41,-194.23 239.65,-148.35 245.55,-119.04"/>
<polygon fill="black" stroke="black" points="249.02,-119.56 247.56,-109.06 242.16,-118.17 249.02,-119.56"/>
</g>
<!-- backup&#45;create&#45;rsync&#45;&gt;backup&#45;rsync -->
<g id="edge8" class="edge">
<title>backup&#45;create&#45;rsync&#45;&gt;backup&#45;rsync</title>
<path fill="none" stroke="black" d="M209.87,-291.81C211.68,-283.79 213.88,-274.05 215.9,-265.07"/>
<polygon fill="black" stroke="black" points="219.38,-265.55 218.16,-255.03 212.55,-264.01 219.38,-265.55"/>
</g>
<!-- backup&#45;mirror -->
<g id="node10" class="node">
<title>backup&#45;mirror</title>
<g id="a_node10"><a xlink:href="../#backup-mirror" xlink:title="backup&#45;mirror" target="_parent">
<polygon fill="none" stroke="black" points="428.5,-634 331.5,-634 331.5,-630 327.5,-630 327.5,-626 331.5,-626 331.5,-606 327.5,-606 327.5,-602 331.5,-602 331.5,-598 428.5,-598 428.5,-634"/>
<polyline fill="none" stroke="black" points="331.5,-630 335.5,-630 335.5,-626 331.5,-626 "/>
<polyline fill="none" stroke="black" points="331.5,-606 335.5,-606 335.5,-602 331.5,-602 "/>
<text text-anchor="middle" x="380" y="-612.3" font-family="Times,serif" font-size="14.00">backup&#45;mirror</text>
</a>
</g>
</g>
<!-- backup&#45;mirror&#45;&gt;backup&#45;purge -->
<g id="edge10" class="edge">
<title>backup&#45;mirror&#45;&gt;backup&#45;purge</title>
<path fill="none" stroke="black" d="M371.7,-597.8C365.98,-585.93 358.26,-569.93 351.76,-556.45"/>
<polygon fill="black" stroke="black" points="354.78,-554.66 347.28,-547.18 348.48,-557.7 354.78,-554.66"/>
<text text-anchor="middle" x="364.5" y="-568.8" font-family="Times,serif" font-size="14.00">2</text>
</g>
<!-- backup&#45;mirror&#45;sources -->
<g id="node11" class="node">
<title>backup&#45;mirror&#45;sources</title>
<g id="a_node11"><a xlink:href="../#backup-mirror-sources" xlink:title="backup&#45;mirror&#45;sources" target="_parent">
<polygon fill="none" stroke="black" points="544.5,-547 403.5,-547 403.5,-543 399.5,-543 399.5,-539 403.5,-539 403.5,-519 399.5,-519 399.5,-515 403.5,-515 403.5,-511 544.5,-511 544.5,-547"/>
<polyline fill="none" stroke="black" points="403.5,-543 407.5,-543 407.5,-539 403.5,-539 "/>
<polyline fill="none" stroke="black" points="403.5,-519 407.5,-519 407.5,-515 403.5,-515 "/>
<text text-anchor="middle" x="474" y="-525.3" font-family="Times,serif" font-size="14.00">backup&#45;mirror&#45;sources</text>
</a>
</g>
</g>
<!-- backup&#45;mirror&#45;&gt;backup&#45;mirror&#45;sources -->
<g id="edge9" class="edge">
<title>backup&#45;mirror&#45;&gt;backup&#45;mirror&#45;sources</title>
<path fill="none" stroke="black" d="M399.02,-597.8C412.91,-585.24 431.92,-568.05 447.33,-554.12"/>
<polygon fill="black" stroke="black" points="449.94,-556.48 455.01,-547.18 445.24,-551.29 449.94,-556.48"/>
<text text-anchor="middle" x="435.5" y="-568.8" font-family="Times,serif" font-size="14.00">1</text>
</g>
<!-- backup&#45;mirror&#45;sources&#45;&gt;backup&#45;copy -->
<g id="edge11" class="edge">
<title>backup&#45;mirror&#45;sources&#45;&gt;backup&#45;copy</title>
<path fill="none" stroke="black" d="M443.82,-510.99C426.96,-501.49 405.74,-489.54 387.56,-479.29"/>
<polygon fill="black" stroke="black" points="388.8,-475.97 378.37,-474.11 385.36,-482.07 388.8,-475.97"/>
</g>
<!-- ionice -->
<g id="node13" class="node">
<title>ionice</title>
<polygon fill="none" stroke="black" points="54,-109 0,-109 0,-105 -4,-105 -4,-101 0,-101 0,-81 -4,-81 -4,-77 0,-77 0,-73 54,-73 54,-109"/>
<polyline fill="none" stroke="black" points="0,-105 4,-105 4,-101 0,-101 "/>
<polyline fill="none" stroke="black" points="0,-81 4,-81 4,-77 0,-77 "/>
<text text-anchor="middle" x="27" y="-87.3" font-family="Times,serif" font-size="14.00">ionice</text>
</g>
<!-- backup&#45;nice&#45;&gt;ionice -->
<g id="edge15" class="edge">
<title>backup&#45;nice&#45;&gt;ionice</title>
<path fill="none" stroke="black" stroke-dasharray="5,2" d="M86.12,-145.81C76.25,-136.83 64.02,-125.69 53.24,-115.89"/>
<polygon fill="black" stroke="black" points="55.46,-113.17 45.71,-109.03 50.75,-118.35 55.46,-113.17"/>
</g>
<!-- nice -->
<g id="node14" class="node">
<title>nice</title>
<polygon fill="none" stroke="black" points="126,-109 72,-109 72,-105 68,-105 68,-101 72,-101 72,-81 68,-81 68,-77 72,-77 72,-73 126,-73 126,-109"/>
<polyline fill="none" stroke="black" points="72,-105 76,-105 76,-101 72,-101 "/>
<polyline fill="none" stroke="black" points="72,-81 76,-81 76,-77 72,-77 "/>
<text text-anchor="middle" x="99" y="-87.3" font-family="Times,serif" font-size="14.00">nice</text>
</g>
<!-- backup&#45;nice&#45;&gt;nice -->
<g id="edge16" class="edge">
<title>backup&#45;nice&#45;&gt;nice</title>
<path fill="none" stroke="black" stroke-dasharray="5,2" d="M103.55,-145.81C102.87,-137.79 102.05,-128.05 101.29,-119.07"/>
<polygon fill="black" stroke="black" points="104.77,-118.7 100.44,-109.03 97.79,-119.29 104.77,-118.7"/>
</g>
<!-- nocache -->
<g id="node15" class="node">
<title>nocache</title>
<polygon fill="none" stroke="black" points="205.5,-109 144.5,-109 144.5,-105 140.5,-105 140.5,-101 144.5,-101 144.5,-81 140.5,-81 140.5,-77 144.5,-77 144.5,-73 205.5,-73 205.5,-109"/>
<polyline fill="none" stroke="black" points="144.5,-105 148.5,-105 148.5,-101 144.5,-101 "/>
<polyline fill="none" stroke="black" points="144.5,-81 148.5,-81 148.5,-77 144.5,-77 "/>
<text text-anchor="middle" x="175" y="-87.3" font-family="Times,serif" font-size="14.00">nocache</text>
</g>
<!-- backup&#45;nice&#45;&gt;nocache -->
<g id="edge17" class="edge">
<title>backup&#45;nice&#45;&gt;nocache</title>
<path fill="none" stroke="black" stroke-dasharray="5,2" d="M121.95,-145.81C130.72,-136.92 141.57,-125.91 151.17,-116.17"/>
<polygon fill="black" stroke="black" points="153.68,-118.61 158.21,-109.03 148.7,-113.69 153.68,-118.61"/>
</g>
<!-- ssh -->
<g id="node18" class="node">
<title>ssh</title>
<polygon fill="none" stroke="black" points="278,-36 224,-36 224,-32 220,-32 220,-28 224,-28 224,-8 220,-8 220,-4 224,-4 224,0 278,0 278,-36"/>
<polyline fill="none" stroke="black" points="224,-32 228,-32 228,-28 224,-28 "/>
<polyline fill="none" stroke="black" points="224,-8 228,-8 228,-4 224,-4 "/>
<text text-anchor="middle" x="251" y="-14.3" font-family="Times,serif" font-size="14.00">ssh</text>
</g>
<!-- rsync&#45;&gt;ssh -->
<g id="edge20" class="edge">
<title>rsync&#45;&gt;ssh</title>
<path fill="none" stroke="black" stroke-dasharray="5,2" d="M251,-72.81C251,-64.79 251,-55.05 251,-46.07"/>
<polygon fill="black" stroke="black" points="254.5,-46.03 251,-36.03 247.5,-46.03 254.5,-46.03"/>
</g>
</g>
</svg>
